<svg xmlns="http://www.w3.org/2000/svg" width="303.333" height="392.667"><circle fill="none" stroke="#0FF" stroke-width="4" stroke-miterlimit="10" cx="151.667" cy="151.386" r="147.957"/><path fill="#F4F4F4" d="M264.317 151.386c0 62.215-50.436 112.65-112.651 112.65-62.215 0-112.649-50.436-112.649-112.65s50.434-112.65 112.649-112.65c62.216 0 112.651 50.435 112.651 112.65"/><circle fill="none" stroke="#0FF" stroke-width="4" stroke-miterlimit="10" cx="151.452" cy="332.698" r="17.354"/><circle fill="none" stroke="#0FF" stroke-width="4" stroke-miterlimit="10" cx="151.453" cy="377.645" r="11.592"/><path fill="#29ABE2" d="M184.761 195.459l-4.037 3.938v-3.938z"/><path fill="#29ABE2" d="M169.218 102.958v-2.28h-9.788a6.416 6.416 0 0 0-12.585 0h-9.789v2.28h-28.04v112.771h88.24V102.958h-28.038zm-29.655.227h9.877a4.095 4.095 0 0 1-.213-1.253c0-.439.087-.852.213-1.252a3.912 3.912 0 0 1 3.697-2.656 3.91 3.91 0 0 1 3.697 2.656c.127.4.215.813.215 1.252 0 .438-.088.864-.215 1.253h9.878v8.536h-27.149v-8.536zm29.655 11.043v-2.507h17.373v81.232h-8.374v8.159h-58.534V111.72h17.374v2.507h32.161zm15.543 81.231l-4.037 3.938v-3.938h4.037zm9.99 17.76h-83.227V105.468h25.532v3.746h-19.879v94.407h62.808l9.112-8.888v-85.519h-19.88v-3.746h25.533v107.751z"/><path fill="#29ABE2" d="M136.529 139.439h-10.182v-10.185h10.182v10.185zm-7.676-2.507h5.169v-5.17h-5.169v5.17zm7.676 25.33h-10.182v-10.184h10.182v10.184zm-7.676-2.509h5.169v-5.168h-5.169v5.168zm7.676 25.331h-10.182V174.9h10.182v10.184zm-7.676-2.507h5.169v-5.17h-5.169v5.17zm13.161-45.645h35.563v2.507h-35.563zm0 22.823h35.563v2.507h-35.563zm0 22.822h35.563v2.508h-35.563z"/></svg>