<svg xmlns="http://www.w3.org/2000/svg" width="189.865" height="61.46"><linearGradient id="a" gradientUnits="userSpaceOnUse" x1=".146" y1="57.696" x2="63.876" y2="57.696"><stop offset="0" stop-color="#aedabe"/><stop offset=".503" stop-color="#43c6ee"/><stop offset="1" stop-color="#4f9bd4"/></linearGradient><path fill="url(#a)" d="M34.12 55.035a3.752 3.752 0 0 0 0 5.322 3.787 3.787 0 0 0 5.342 0 3.754 3.754 0 0 0 0-5.322 3.787 3.787 0 0 0-5.342 0z"/><linearGradient id="b" gradientUnits="userSpaceOnUse" x1=".146" y1="36.991" x2="63.876" y2="36.991"><stop offset="0" stop-color="#aedabe"/><stop offset=".503" stop-color="#43c6ee"/><stop offset="1" stop-color="#4f9bd4"/></linearGradient><path fill="url(#b)" d="M39.722 23.37l-22.985-.52c-2.213-.05-3.456 2.52-2.037 4.213l19.397 23.146c1.418 1.693 4.178.934 4.523-1.245l3.589-22.625a2.57 2.57 0 0 0-2.487-2.969z"/><linearGradient id="c" gradientUnits="userSpaceOnUse" x1=".144" y1="34.87" x2="63.873" y2="34.87"><stop offset="0" stop-color="#aedabe"/><stop offset=".503" stop-color="#43c6ee"/><stop offset="1" stop-color="#4f9bd4"/></linearGradient><path fill="url(#c)" d="M14.285 33.708a1.824 1.824 0 0 0-2.564-.229 1.81 1.81 0 0 0-.23 2.555 1.825 1.825 0 0 0 2.564.229 1.81 1.81 0 0 0 .23-2.555z"/><linearGradient id="d" gradientUnits="userSpaceOnUse" x1=".146" y1="40.11" x2="63.876" y2="40.11"><stop offset="0" stop-color="#aedabe"/><stop offset=".503" stop-color="#43c6ee"/><stop offset="1" stop-color="#4f9bd4"/></linearGradient><path fill="url(#d)" d="M18.677 38.948a1.824 1.824 0 0 0-2.564-.229 1.81 1.81 0 0 0-.23 2.555 1.825 1.825 0 0 0 2.564.229 1.81 1.81 0 0 0 .23-2.555z"/><linearGradient id="e" gradientUnits="userSpaceOnUse" x1=".146" y1="45.351" x2="63.876" y2="45.351"><stop offset="0" stop-color="#aedabe"/><stop offset=".503" stop-color="#43c6ee"/><stop offset="1" stop-color="#4f9bd4"/></linearGradient><path fill="url(#e)" d="M20.504 43.959a1.81 1.81 0 0 0-.231 2.555 1.825 1.825 0 0 0 2.564.229 1.81 1.81 0 0 0 .231-2.555 1.825 1.825 0 0 0-2.564-.229z"/><linearGradient id="f" gradientUnits="userSpaceOnUse" x1=".146" y1="50.591" x2="63.876" y2="50.591"><stop offset="0" stop-color="#aedabe"/><stop offset=".503" stop-color="#43c6ee"/><stop offset="1" stop-color="#4f9bd4"/></linearGradient><path fill="url(#f)" d="M24.896 49.199a1.81 1.81 0 0 0-.231 2.555c.645.769 1.792.871 2.564.229s.875-1.785.23-2.555a1.824 1.824 0 0 0-2.563-.229z"/><linearGradient id="g" gradientUnits="userSpaceOnUse" x1=".146" y1="39.157" x2="63.876" y2="39.157"><stop offset="0" stop-color="#aedabe"/><stop offset=".503" stop-color="#43c6ee"/><stop offset="1" stop-color="#4f9bd4"/></linearGradient><path fill="url(#g)" d="M9.132 37.994a1.825 1.825 0 0 0-2.564-.229 1.81 1.81 0 0 0-.231 2.555 1.824 1.824 0 0 0 2.564.229 1.809 1.809 0 0 0 .231-2.555z"/><linearGradient id="h" gradientUnits="userSpaceOnUse" x1=".146" y1="44.398" x2="63.876" y2="44.398"><stop offset="0" stop-color="#aedabe"/><stop offset=".503" stop-color="#43c6ee"/><stop offset="1" stop-color="#4f9bd4"/></linearGradient><path fill="url(#h)" d="M10.96 43.005a1.81 1.81 0 0 0-.231 2.555 1.824 1.824 0 0 0 2.564.229c.772-.642.875-1.786.231-2.555s-1.793-.871-2.564-.229z"/><linearGradient id="i" gradientUnits="userSpaceOnUse" x1=".146" y1="49.638" x2="63.876" y2="49.638"><stop offset="0" stop-color="#aedabe"/><stop offset=".503" stop-color="#43c6ee"/><stop offset="1" stop-color="#4f9bd4"/></linearGradient><path fill="url(#i)" d="M15.351 48.245a1.81 1.81 0 0 0-.231 2.555c.645.77 1.792.872 2.564.229a1.81 1.81 0 0 0 .231-2.555 1.827 1.827 0 0 0-2.564-.229z"/><linearGradient id="j" gradientUnits="userSpaceOnUse" x1=".146" y1="54.878" x2="63.876" y2="54.878"><stop offset="0" stop-color="#aedabe"/><stop offset=".503" stop-color="#43c6ee"/><stop offset="1" stop-color="#4f9bd4"/></linearGradient><path fill="url(#j)" d="M19.743 53.485a1.81 1.81 0 0 0-.231 2.555c.644.77 1.792.872 2.564.229a1.81 1.81 0 0 0 .23-2.555 1.825 1.825 0 0 0-2.563-.229z"/><linearGradient id="k" gradientUnits="userSpaceOnUse" x1=".146" y1="48.684" x2="63.876" y2="48.684"><stop offset="0" stop-color="#aedabe"/><stop offset=".503" stop-color="#43c6ee"/><stop offset="1" stop-color="#4f9bd4"/></linearGradient><path fill="url(#k)" d="M5.807 47.291a1.809 1.809 0 0 0-.23 2.555c.644.77 1.792.872 2.564.23a1.81 1.81 0 0 0 .231-2.555 1.826 1.826 0 0 0-2.565-.23z"/><linearGradient id="l" gradientUnits="userSpaceOnUse" x1=".146" y1="53.924" x2="63.876" y2="53.924"><stop offset="0" stop-color="#aedabe"/><stop offset=".503" stop-color="#43c6ee"/><stop offset="1" stop-color="#4f9bd4"/></linearGradient><path fill="url(#l)" d="M10.198 52.531a1.81 1.81 0 0 0-.231 2.555c.645.77 1.792.872 2.564.23a1.81 1.81 0 0 0 .23-2.555 1.824 1.824 0 0 0-2.563-.23z"/><linearGradient id="m" gradientUnits="userSpaceOnUse" x1=".146" y1="52.97" x2="63.876" y2="52.97"><stop offset="0" stop-color="#aedabe"/><stop offset=".503" stop-color="#43c6ee"/><stop offset="1" stop-color="#4f9bd4"/></linearGradient><path fill="url(#m)" d="M.654 51.578a1.81 1.81 0 0 0-.23 2.555 1.824 1.824 0 0 0 2.563.229 1.81 1.81 0 0 0 .231-2.555 1.826 1.826 0 0 0-2.564-.229z"/><linearGradient id="n" gradientUnits="userSpaceOnUse" x1=".146" y1="58.21" x2="63.876" y2="58.21"><stop offset="0" stop-color="#aedabe"/><stop offset=".503" stop-color="#43c6ee"/><stop offset="1" stop-color="#4f9bd4"/></linearGradient><path fill="url(#n)" d="M5.045 56.818a1.81 1.81 0 0 0-.231 2.555 1.825 1.825 0 0 0 2.564.229 1.81 1.81 0 0 0 .231-2.555 1.826 1.826 0 0 0-2.564-.229z"/><linearGradient id="o" gradientUnits="userSpaceOnUse" x1=".146" y1="55.435" x2="63.876" y2="55.435"><stop offset="0" stop-color="#aedabe"/><stop offset=".503" stop-color="#43c6ee"/><stop offset="1" stop-color="#4f9bd4"/></linearGradient><path fill="url(#o)" d="M42.601 52.774a3.752 3.752 0 0 0 0 5.322 3.787 3.787 0 0 0 5.342 0 3.754 3.754 0 0 0 0-5.322 3.789 3.789 0 0 0-5.342 0z"/><linearGradient id="p" gradientUnits="userSpaceOnUse" x1=".146" y1="50.497" x2="63.876" y2="50.497"><stop offset="0" stop-color="#aedabe"/><stop offset=".503" stop-color="#43c6ee"/><stop offset="1" stop-color="#4f9bd4"/></linearGradient><path fill="url(#p)" d="M49.909 47.836a3.752 3.752 0 0 0 0 5.322 3.787 3.787 0 0 0 5.342 0 3.754 3.754 0 0 0 0-5.322 3.787 3.787 0 0 0-5.342 0z"/><linearGradient id="q" gradientUnits="userSpaceOnUse" x1=".146" y1="43.79" x2="63.876" y2="43.79"><stop offset="0" stop-color="#aedabe"/><stop offset=".503" stop-color="#43c6ee"/><stop offset="1" stop-color="#4f9bd4"/></linearGradient><path fill="url(#q)" d="M55.319 41.129a3.752 3.752 0 0 0 0 5.322 3.787 3.787 0 0 0 5.342 0 3.752 3.752 0 0 0 0-5.322 3.787 3.787 0 0 0-5.342 0z"/><linearGradient id="r" gradientUnits="userSpaceOnUse" x1=".146" y1="35.568" x2="63.876" y2="35.568"><stop offset="0" stop-color="#aedabe"/><stop offset=".503" stop-color="#43c6ee"/><stop offset="1" stop-color="#4f9bd4"/></linearGradient><path fill="url(#r)" d="M58.255 32.907a3.754 3.754 0 0 0 0 5.322 3.788 3.788 0 0 0 5.343 0 3.754 3.754 0 0 0 0-5.322 3.79 3.79 0 0 0-5.343 0z"/><linearGradient id="s" gradientUnits="userSpaceOnUse" x1=".146" y1="18.521" x2="63.876" y2="18.521"><stop offset="0" stop-color="#aedabe"/><stop offset=".503" stop-color="#43c6ee"/><stop offset="1" stop-color="#4f9bd4"/></linearGradient><path fill="url(#s)" d="M55.834 21.183a3.787 3.787 0 0 0 5.342 0 3.752 3.752 0 0 0 0-5.322 3.787 3.787 0 0 0-5.342 0 3.755 3.755 0 0 0 0 5.322z"/><linearGradient id="t" gradientUnits="userSpaceOnUse" x1=".146" y1="26.851" x2="63.876" y2="26.851"><stop offset="0" stop-color="#aedabe"/><stop offset=".503" stop-color="#43c6ee"/><stop offset="1" stop-color="#4f9bd4"/></linearGradient><path fill="url(#t)" d="M58.255 24.189a3.754 3.754 0 0 0 0 5.322 3.788 3.788 0 0 0 5.343 0 3.754 3.754 0 0 0 0-5.322 3.79 3.79 0 0 0-5.343 0z"/><linearGradient id="u" gradientUnits="userSpaceOnUse" x1=".146" y1="11.445" x2="63.876" y2="11.445"><stop offset="0" stop-color="#aedabe"/><stop offset=".503" stop-color="#43c6ee"/><stop offset="1" stop-color="#4f9bd4"/></linearGradient><path fill="url(#u)" d="M50.707 14.106c1.475 1.47 3.866 1.47 5.342 0s1.476-3.853 0-5.322-3.867-1.47-5.342 0a3.752 3.752 0 0 0 0 5.322z"/><linearGradient id="v" gradientUnits="userSpaceOnUse" x1=".146" y1="6.345" x2="63.876" y2="6.345"><stop offset="0" stop-color="#aedabe"/><stop offset=".503" stop-color="#43c6ee"/><stop offset="1" stop-color="#4f9bd4"/></linearGradient><path fill="url(#v)" d="M48.946 9.006a3.754 3.754 0 0 0 0-5.322 3.787 3.787 0 0 0-5.342 0 3.752 3.752 0 0 0 0 5.322 3.787 3.787 0 0 0 5.342 0z"/><linearGradient id="w" gradientUnits="userSpaceOnUse" x1=".146" y1="3.763" x2="63.876" y2="3.763"><stop offset="0" stop-color="#aedabe"/><stop offset=".503" stop-color="#43c6ee"/><stop offset="1" stop-color="#4f9bd4"/></linearGradient><path fill="url(#w)" d="M40.586 6.424a3.754 3.754 0 0 0 0-5.322 3.787 3.787 0 0 0-5.342 0 3.752 3.752 0 0 0 0 5.322 3.787 3.787 0 0 0 5.342 0z"/><linearGradient id="x" gradientUnits="userSpaceOnUse" x1=".146" y1="3.946" x2="63.876" y2="3.946"><stop offset="0" stop-color="#aedabe"/><stop offset=".503" stop-color="#43c6ee"/><stop offset="1" stop-color="#4f9bd4"/></linearGradient><path fill="url(#x)" d="M31.836 6.607c1.475-1.47 1.475-3.853 0-5.322s-3.867-1.47-5.342 0-1.475 3.853 0 5.322 3.867 1.47 5.342 0z"/><linearGradient id="y" gradientUnits="userSpaceOnUse" x1=".146" y1="6.879" x2="63.876" y2="6.879"><stop offset="0" stop-color="#aedabe"/><stop offset=".503" stop-color="#43c6ee"/><stop offset="1" stop-color="#4f9bd4"/></linearGradient><path fill="url(#y)" d="M23.58 9.541c1.475-1.47 1.475-3.853 0-5.322s-3.867-1.47-5.342 0-1.475 3.853 0 5.322 3.867 1.469 5.342 0z"/><linearGradient id="z" gradientUnits="userSpaceOnUse" x1=".146" y1="12.277" x2="63.876" y2="12.277"><stop offset="0" stop-color="#aedabe"/><stop offset=".503" stop-color="#43c6ee"/><stop offset="1" stop-color="#4f9bd4"/></linearGradient><path fill="url(#z)" d="M16.708 14.938a3.752 3.752 0 0 0 0-5.322c-1.475-1.47-3.867-1.47-5.342 0s-1.475 3.853 0 5.322 3.866 1.47 5.342 0z"/><linearGradient id="A" gradientUnits="userSpaceOnUse" x1=".146" y1="19.56" x2="63.876" y2="19.56"><stop offset="0" stop-color="#aedabe"/><stop offset=".503" stop-color="#43c6ee"/><stop offset="1" stop-color="#4f9bd4"/></linearGradient><path fill="url(#A)" d="M12.227 22.221c1.475-1.469 1.475-3.853 0-5.322s-3.867-1.47-5.342 0-1.475 3.853 0 5.322a3.789 3.789 0 0 0 5.342 0z"/><linearGradient id="B" gradientUnits="userSpaceOnUse" x1=".146" y1="27.988" x2="63.876" y2="27.988"><stop offset="0" stop-color="#aedabe"/><stop offset=".503" stop-color="#43c6ee"/><stop offset="1" stop-color="#4f9bd4"/></linearGradient><path fill="url(#B)" d="M9.645 30.649a3.754 3.754 0 0 0 0-5.322c-1.476-1.47-3.867-1.47-5.342 0s-1.475 3.853 0 5.322 3.866 1.47 5.342 0z"/><path d="M86.969 35.907c.221 0 .391.08.51.24.121.16.16.35.121.568l-.69 3.182a.95.95 0 0 1-.345.568.93.93 0 0 1-.615.24H72.059a.632.632 0 0 1-.524-.24.67.67 0 0 1-.136-.568l4.141-19.381a.95.95 0 0 1 .346-.57.935.935 0 0 1 .614-.24h3.931c.219 0 .395.08.524.24s.175.35.135.57l-3.271 15.391h9.15zm7.5 3.99a.952.952 0 0 1-.346.568.925.925 0 0 1-.614.24h-3.78a.634.634 0 0 1-.525-.24.67.67 0 0 1-.135-.568l2.971-13.981a.93.93 0 0 1 .359-.57c.199-.16.41-.24.631-.24h3.779c.22 0 .391.08.51.24a.7.7 0 0 1 .12.57l-2.97 13.981zm3.66-17.251a.96.96 0 0 1-.346.57.93.93 0 0 1-.615.24h-3.779a.64.64 0 0 1-.525-.24.671.671 0 0 1-.135-.57l.66-3.03c.039-.22.16-.41.359-.57.2-.16.41-.24.631-.24h3.779c.221 0 .391.08.51.24.121.161.16.35.121.57l-.66 3.03zm15.81 17.251a.95.95 0 0 1-.345.568.929.929 0 0 1-.615.24h-3.78a.632.632 0 0 1-.524-.24.664.664 0 0 1-.136-.568l1.62-7.59c.181-.861.115-1.551-.194-2.071-.311-.52-.915-.78-1.815-.78s-1.61.26-2.13.78c-.521.521-.87 1.21-1.05 2.071l-1.62 7.59a.95.95 0 0 1-.345.568.93.93 0 0 1-.615.24h-3.78a.631.631 0 0 1-.524-.24.664.664 0 0 1-.136-.568l2.97-13.981c.041-.22.16-.41.36-.57s.409-.24.63-.24h3.63c.221 0 .391.08.511.24s.159.35.12.57l-.15.69c.42-.42.979-.825 1.68-1.215s1.58-.585 2.641-.585c.899 0 1.729.135 2.489.405s1.396.686 1.905 1.245c.51.56.859 1.271 1.05 2.13.19.86.165 1.88-.075 3.06l-1.772 8.251zm10.829-9.96l4.86-4.32c.14-.1.319-.21.54-.33.22-.12.47-.18.75-.18h5.01c.3 0 .47.146.511.435.039.29-.061.545-.301.765l-7.439 6.69 4.38 6.42c.1.141.16.244.18.314s.02.156 0 .256a.883.883 0 0 1-.314.51.851.851 0 0 1-.556.209h-3.93c-.28 0-.51-.045-.69-.135a1.027 1.027 0 0 1-.42-.375l-3.63-5.369-1.08 5.07a.95.95 0 0 1-.345.568.929.929 0 0 1-.615.24H117.9a.633.633 0 0 1-.525-.24.667.667 0 0 1-.135-.568l4.2-19.681a.948.948 0 0 1 .345-.57.935.935 0 0 1 .615-.24h3.779c.22 0 .395.08.525.24.13.16.175.35.135.57l-2.071 9.721zm19.051-5.13c.579 0 1.09.06 1.529.18.44.12.82.27 1.141.45.319.18.58.375.78.585.199.21.35.405.449.585l.15-.69c.04-.22.154-.41.345-.57s.395-.24.615-.24h3.78c.22 0 .395.08.524.24s.175.35.136.57l-2.94 13.981a.95.95 0 0 1-.345.568.929.929 0 0 1-.615.24h-3.811a.632.632 0 0 1-.524-.24.66.66 0 0 1-.135-.568l.149-.691c-.16.24-.35.471-.569.691-.221.219-.501.414-.841.584s-.755.301-1.244.391a9.673 9.673 0 0 1-1.726.135 5.76 5.76 0 0 1-2.205-.436 4.844 4.844 0 0 1-1.83-1.305c-.51-.58-.885-1.309-1.125-2.189-.239-.881-.26-1.91-.06-3.09a20.084 20.084 0 0 1 .225-1.215 34.585 34.585 0 0 1 .285-1.216c.3-1.18.71-2.195 1.23-3.045.52-.85 1.119-1.55 1.8-2.1.68-.55 1.43-.955 2.25-1.215a8.498 8.498 0 0 1 2.582-.39zm-2.58 7.259c-.101.3-.176.581-.226.841s-.095.539-.135.84a4.21 4.21 0 0 0 0 1.004c.04.311.14.586.3.826s.391.43.69.57c.3.139.68.209 1.14.209.44 0 .83-.07 1.17-.209a3.296 3.296 0 0 0 1.545-1.321c.17-.28.305-.57.405-.871.12-.299.22-.648.3-1.049s.13-.75.15-1.051c.02-.3.005-.59-.045-.87-.05-.28-.155-.535-.315-.765s-.38-.415-.66-.555c-.28-.14-.64-.21-1.079-.21-.94 0-1.661.26-2.16.78a4.593 4.593 0 0 0-1.08 1.831zm19.319 10.742c.38 0 .755-.045 1.125-.137.37-.09.705-.219 1.006-.389.3-.17.555-.387.765-.645.21-.262.354-.57.435-.932l.42-2.1c-.2.24-.395.471-.585.689-.189.221-.43.416-.72.586s-.665.301-1.125.391-1.061.135-1.8.135a6.094 6.094 0 0 1-2.25-.436 5.54 5.54 0 0 1-1.95-1.289c-.56-.57-.98-1.285-1.26-2.146-.28-.859-.32-1.859-.12-3 .04-.299.105-.654.195-1.064s.175-.766.255-1.064c.58-2.3 1.5-3.976 2.76-5.026 1.26-1.05 2.95-1.575 5.07-1.575.579 0 1.109.06 1.59.18.479.12.899.27 1.26.45s.655.375.885.585c.23.21.396.405.495.585l.15-.69c.04-.22.16-.41.359-.57.2-.16.41-.24.631-.24h3.479c.22 0 .39.08.51.24s.16.35.12.57l-3.09 14.61c-.479 2.26-1.48 3.955-3 5.086-1.521 1.129-3.63 1.695-6.33 1.695-1.42 0-2.585-.195-3.495-.586s-1.63-.859-2.16-1.41c-.529-.551-.88-1.125-1.05-1.725s-.225-1.121-.165-1.561c.041-.221.16-.41.36-.57s.41-.24.63-.24h3.9c.399 0 .67.201.81.602.08.26.245.488.495.689.251.2.715.302 1.395.302zm-.329-10.952a4.756 4.756 0 0 0-.195.734c-.03.191-.065.436-.105.736-.1.699.02 1.279.36 1.74.34.459.949.689 1.83.689.819 0 1.489-.225 2.01-.676.52-.449.89-.965 1.11-1.545.12-.299.21-.615.27-.945.061-.328.11-.645.15-.944.04-.58-.115-1.09-.465-1.53-.351-.44-.936-.66-1.755-.66-.86 0-1.556.225-2.085.675a3.66 3.66 0 0 0-1.125 1.726zm18.359 2.76c-.101.461-.101.84 0 1.141.1.301.265.539.495.721.229.18.494.305.795.375.3.07.6.104.899.104.601 0 1.09-.059 1.471-.18.379-.119.709-.289.989-.51.26-.18.445-.295.556-.346.109-.049.284-.074.524-.074h3.9c.439 0 .609.221.51.66-.04.24-.221.605-.54 1.096-.32.49-.815.988-1.485 1.5-.67.51-1.535.955-2.595 1.334-1.061.381-2.36.57-3.899.57-1.16 0-2.205-.205-3.136-.615-.93-.41-1.694-.98-2.295-1.709-.6-.73-1.015-1.611-1.245-2.641-.229-1.029-.205-2.176.075-3.436.24-1.16.61-2.22 1.11-3.18.499-.96 1.14-1.785 1.92-2.475s1.699-1.22 2.76-1.59c1.06-.37 2.28-.555 3.66-.555 1.32 0 2.445.245 3.375.735.93.49 1.675 1.125 2.235 1.905.56.78.925 1.655 1.095 2.625s.154 1.935-.045 2.894l-.181.842a.945.945 0 0 1-.345.568.937.937 0 0 1-.615.24h-9.988zm3.9-5.76c-.84 0-1.529.25-2.069.75s-.921 1.061-1.141 1.68h5.4a2.434 2.434 0 0 0-.436-1.68c-.349-.499-.934-.75-1.754-.75z" fill="#FFF"/></svg>