<svg xmlns="http://www.w3.org/2000/svg" width="64.704" height="61.46"><path d="M34.12 55.035a3.752 3.752 0 0 0 0 5.322 3.787 3.787 0 0 0 5.342 0 3.754 3.754 0 0 0 0-5.322 3.787 3.787 0 0 0-5.342 0zm5.602-31.665l-22.985-.52c-2.213-.05-3.456 2.52-2.037 4.213l19.397 23.146c1.418 1.693 4.178.934 4.523-1.245l3.589-22.625a2.57 2.57 0 0 0-2.487-2.969zM14.285 33.708a1.824 1.824 0 0 0-2.564-.229 1.81 1.81 0 0 0-.23 2.555 1.825 1.825 0 0 0 2.564.229 1.81 1.81 0 0 0 .23-2.555zm4.392 5.24a1.824 1.824 0 0 0-2.564-.229 1.81 1.81 0 0 0-.23 2.555 1.825 1.825 0 0 0 2.564.229 1.81 1.81 0 0 0 .23-2.555zm1.827 5.011a1.81 1.81 0 0 0-.231 2.555 1.825 1.825 0 0 0 2.564.229 1.81 1.81 0 0 0 .231-2.555 1.825 1.825 0 0 0-2.564-.229zm4.392 5.24a1.81 1.81 0 0 0-.231 2.555c.645.769 1.792.871 2.564.229s.875-1.785.23-2.555a1.824 1.824 0 0 0-2.563-.229zM9.132 37.994a1.825 1.825 0 0 0-2.564-.229 1.81 1.81 0 0 0-.231 2.555 1.824 1.824 0 0 0 2.564.229 1.809 1.809 0 0 0 .231-2.555zm1.828 5.011a1.81 1.81 0 0 0-.231 2.555 1.824 1.824 0 0 0 2.564.229c.772-.642.875-1.786.231-2.555s-1.793-.871-2.564-.229zm4.391 5.24a1.81 1.81 0 0 0-.231 2.555c.645.77 1.792.872 2.564.229a1.81 1.81 0 0 0 .231-2.555 1.827 1.827 0 0 0-2.564-.229zm4.392 5.24a1.81 1.81 0 0 0-.231 2.555c.644.77 1.792.872 2.564.229a1.81 1.81 0 0 0 .23-2.555 1.825 1.825 0 0 0-2.563-.229zM5.807 47.291a1.809 1.809 0 0 0-.23 2.555c.644.77 1.792.872 2.564.23a1.81 1.81 0 0 0 .231-2.555 1.826 1.826 0 0 0-2.565-.23zm4.391 5.24a1.81 1.81 0 0 0-.231 2.555c.645.77 1.792.872 2.564.23a1.81 1.81 0 0 0 .23-2.555 1.824 1.824 0 0 0-2.563-.23zm-9.544-.953a1.81 1.81 0 0 0-.23 2.555 1.824 1.824 0 0 0 2.563.229 1.81 1.81 0 0 0 .231-2.555 1.826 1.826 0 0 0-2.564-.229zm4.391 5.24a1.81 1.81 0 0 0-.231 2.555 1.825 1.825 0 0 0 2.564.229 1.81 1.81 0 0 0 .231-2.555 1.826 1.826 0 0 0-2.564-.229zm37.556-4.044a3.752 3.752 0 0 0 0 5.322 3.787 3.787 0 0 0 5.342 0 3.754 3.754 0 0 0 0-5.322 3.789 3.789 0 0 0-5.342 0zm7.308-4.938a3.752 3.752 0 0 0 0 5.322 3.787 3.787 0 0 0 5.342 0 3.754 3.754 0 0 0 0-5.322 3.787 3.787 0 0 0-5.342 0zm5.41-6.707a3.752 3.752 0 0 0 0 5.322 3.787 3.787 0 0 0 5.342 0 3.752 3.752 0 0 0 0-5.322 3.787 3.787 0 0 0-5.342 0zm2.936-8.222a3.754 3.754 0 0 0 0 5.322 3.788 3.788 0 0 0 5.343 0 3.754 3.754 0 0 0 0-5.322 3.79 3.79 0 0 0-5.343 0zm-2.421-11.724a3.787 3.787 0 0 0 5.342 0 3.752 3.752 0 0 0 0-5.322 3.787 3.787 0 0 0-5.342 0 3.755 3.755 0 0 0 0 5.322zm2.421 3.006a3.754 3.754 0 0 0 0 5.322 3.788 3.788 0 0 0 5.343 0 3.754 3.754 0 0 0 0-5.322 3.79 3.79 0 0 0-5.343 0zm-7.548-10.083c1.475 1.47 3.866 1.47 5.342 0s1.476-3.853 0-5.322-3.867-1.47-5.342 0a3.752 3.752 0 0 0 0 5.322zm-1.761-5.1a3.754 3.754 0 0 0 0-5.322 3.787 3.787 0 0 0-5.342 0 3.752 3.752 0 0 0 0 5.322 3.787 3.787 0 0 0 5.342 0zm-8.36-2.582a3.754 3.754 0 0 0 0-5.322 3.787 3.787 0 0 0-5.342 0 3.752 3.752 0 0 0 0 5.322 3.787 3.787 0 0 0 5.342 0zm-8.75.183c1.475-1.47 1.475-3.853 0-5.322s-3.867-1.47-5.342 0-1.475 3.853 0 5.322 3.867 1.47 5.342 0zM23.58 9.541c1.475-1.47 1.475-3.853 0-5.322s-3.867-1.47-5.342 0-1.475 3.853 0 5.322 3.867 1.469 5.342 0zm-6.872 5.397a3.752 3.752 0 0 0 0-5.322c-1.475-1.47-3.867-1.47-5.342 0s-1.475 3.853 0 5.322 3.866 1.47 5.342 0zm-4.481 7.283c1.475-1.469 1.475-3.853 0-5.322s-3.867-1.47-5.342 0-1.475 3.853 0 5.322a3.789 3.789 0 0 0 5.342 0zm-2.582 8.428a3.754 3.754 0 0 0 0-5.322c-1.476-1.47-3.867-1.47-5.342 0s-1.475 3.853 0 5.322 3.866 1.47 5.342 0z" fill="#FFF"/></svg>