<svg xmlns="http://www.w3.org/2000/svg" width="303.333" height="392.667"><circle fill="none" stroke="#6FCBDC" stroke-width="3" stroke-miterlimit="10" cx="151.5" cy="151.612" r="148.256"/><path fill="#F3F3F3" d="M264.379 151.612c0 62.341-50.537 112.879-112.879 112.879-62.341 0-112.879-50.538-112.879-112.879S89.159 38.733 151.5 38.733c62.342 0 112.879 50.538 112.879 112.879"/><circle fill="none" stroke="#6FCBDC" stroke-width="4" stroke-miterlimit="10" cx="150.64" cy="333.292" r="17.389"/><circle fill="none" stroke="#6FCBDC" stroke-width="4" stroke-miterlimit="10" cx="150.64" cy="378.331" r="11.615"/><path fill="#29A9E1" d="M191.92 122.13c7.588 8.897 12.186 20.423 12.186 33.008 0 28.097-22.859 50.955-50.957 50.955-28.097 0-50.955-22.858-50.955-50.955 0-28.098 22.857-50.956 50.955-50.956 12.584 0 24.107 4.596 33.008 12.184l2.309-2.311c-9.494-8.176-21.832-13.134-35.316-13.134-29.895 0-54.217 24.322-54.217 54.217 0 29.896 24.322 54.216 54.217 54.216s54.217-24.32 54.217-54.216c0-13.483-4.959-25.823-13.133-35.319l-2.314 2.311z"/><path fill="#29A9E1" d="M187.391 155.138c0 18.881-15.361 34.242-34.242 34.242-18.881 0-34.243-15.361-34.243-34.242s15.361-34.242 34.243-34.242c7.973 0 15.301 2.763 21.127 7.349l2.336-2.334c-6.43-5.172-14.588-8.275-23.463-8.275-20.678 0-37.503 16.824-37.503 37.503 0 20.681 16.825 37.503 37.503 37.503s37.504-16.822 37.504-37.503c0-8.875-3.105-17.034-8.275-23.463l-2.336 2.335c4.587 5.825 7.349 13.154 7.349 21.127"/><path fill="#29A9E1" d="M131.748 155.138c0 11.801 9.601 21.401 21.401 21.401 11.801 0 21.4-9.601 21.4-21.401 0-4.431-1.354-8.55-3.666-11.969l-2.371 2.37a18.008 18.008 0 0 1 2.777 9.599c0 10.003-8.137 18.14-18.141 18.14-10.002 0-18.14-8.137-18.14-18.14 0-10.002 8.138-18.14 18.14-18.14 3.527 0 6.811 1.027 9.6 2.775l2.369-2.369a21.29 21.29 0 0 0-11.969-3.668c-11.8.001-21.4 9.601-21.4 21.402m98.795-56.451h-20.799V77.6h3.262v17.825h17.537z"/><path fill="#29A9E1" d="M219.807 109.424h-20.799V88.337h3.26v17.826h17.539z"/><path fill="#29A9E1" d="M209.66 96.34l2.305 2.307-57.665 57.632-2.305-2.307z"/></svg>