<svg xmlns="http://www.w3.org/2000/svg" width="1144" height="784"><path fill="#C7F0FF" d="M796.49 675.679s-6.578-22.503-29.427-22.503c-22.851 0-31.212 18.805-31.212 18.805s2.27-18.539-16.648-26.485c-18.919-7.945-30.647 4.92-30.647 4.92s.379-34.055-36.701-40.107-45.026 31.404-45.026 31.404c-24.972-34.433-30.422-133.428-30.422-133.428h-22.881s-5.45 98.995-30.423 133.428c0 0-7.945-37.458-45.025-31.404s-36.701 40.107-36.701 40.107-11.729-12.865-30.647-4.92c-18.918 7.946-16.648 26.485-16.648 26.485s-8.361-18.805-31.212-18.805c-22.849 0-29.427 22.503-29.427 22.503s-50.526-12.87-50.526 39.313h583.52c-.005-.001-7.261-57.221-69.947-39.313"/><path fill="#29ABE2" d="M150.884 706.854S17.07 563.22 115.753 587.984c56.349 14.141-28.229-68.215 4.704-98.795 32.932-30.579 63.511 21.171 61.158 56.454-2.354 35.284 7.057 54.102 21.17 42.341 14.112-11.762 16.466-28.227 35.282-16.466 18.818 11.761 14.114 30.579 4.705 47.045-9.407 16.465-18.817 42.34-4.705 39.988 14.114-2.354 7.059-25.875 23.523-25.875s26.771 70.565-14.841 79.976l-95.865-5.798z"/><path fill="#FFF" d="M179.889 712.719c2.041-11.905 1.537-28.729-1.497-50.041-2.515-17.659-6.766-38.448-12.634-61.789-10.193-40.551-21.678-74.531-21.787-74.849a1.269 1.269 0 0 1 .795-1.576 1.276 1.276 0 0 1 1.576.796l.013.04c1.235 3.672 12.354 36.994 22.095 75.915 12.938 51.733 17.637 89.239 13.972 111.504h-2.533z"/><path fill="#FFF" d="M181.583 702.593c-4.496 0-17.573-14.347-39.981-43.858-17.268-22.741-33.762-46.284-33.924-46.516a1.241 1.241 0 0 1 1.015-1.955c.407 0 .789.198 1.022.53 14.996 21.424 30.984 43.063 43.862 59.363 14.671 18.572 23.905 28.56 27.448 29.686l.616.197.476-.44c6.233-5.786 31.971-64.578 47.748-102.685a1.236 1.236 0 0 1 1.619-.673c.309.127.548.366.675.672.128.308.128.646 0 .952-3.882 9.375-14.033 33.682-24.444 56.851-17.431 38.791-23.031 46.351-24.817 47.402-.495.294-.821.474-1.315.474m43.987 10.126c15.535-14.24 31.594-49.548 34.783-56.789l.094-.208c.201-.467.651-.77 1.148-.77a1.277 1.277 0 0 1 1.156.806c.118.301.112.624-.014.911-.687 1.602-16.802 38.956-33.602 56.05h-3.565z"/><path fill="#C7F0FF" d="M325.839 708.072c0 2.153-.352 4.221-1.015 6.148h-28.526c-.237-7.113-6.074-12.799-13.25-12.799-.713 0-1.415.05-2.091.163-3.569-7.626-11.31-12.911-20.273-12.911-.938 0-1.867.063-2.769.175-4.871-10.744-15.691-18.22-28.266-18.22-13.498 0-24.97 8.603-29.252 20.637a22.164 22.164 0 0 0-10.433-2.592c-10.144 0-18.709 6.762-21.451 16.017a16.667 16.667 0 0 0-8.854-2.517c-7.641 0-14.089 5.084-16.143 12.047h-36.064c0-13.225 10.719-23.944 23.931-23.944 4.633 0 8.954 1.315 12.61 3.582 3.895-13.174 16.092-22.778 30.518-22.778a31.673 31.673 0 0 1 14.853 3.67c6.088-17.106 22.43-29.354 41.626-29.354 17.884 0 33.286 10.632 40.224 25.922a31.64 31.64 0 0 1 3.933-.235c12.761 0 23.769 7.513 28.841 18.356a19.75 19.75 0 0 1 2.993-.225c10.417 0 18.858 8.438 18.858 18.858"/><path fill="#6AD6FF" d="M296.298 714.221H143.519c2.054-6.963 8.504-12.047 16.145-12.047 3.241 0 6.284.914 8.853 2.517 2.743-9.254 11.309-16.017 21.452-16.017 3.77 0 7.326.938 10.431 2.593 4.283-12.035 15.754-20.638 29.254-20.638 12.573 0 23.394 7.476 28.265 18.221a22.27 22.27 0 0 1 2.768-.176c8.966 0 16.706 5.284 20.274 12.909.677-.11 1.378-.16 2.092-.16 7.172.001 13.007 5.684 13.245 12.798"/><path fill="#0096FF" d="M201.014 721.604c0 1.964-.328 3.85-.931 5.612H1.564c0-12.074 9.789-21.864 21.863-21.864 4.224 0 8.17 1.198 11.512 3.274 3.56-12.032 14.692-20.808 27.875-20.808 4.899 0 9.517 1.211 13.564 3.357 5.555-15.63 20.475-26.815 38.006-26.815 16.337 0 30.407 9.713 36.739 23.682a28.507 28.507 0 0 1 3.588-.224c11.656 0 21.713 6.863 26.345 16.771a17.029 17.029 0 0 1 2.727-.217c9.518.005 17.231 7.718 17.231 17.232"/><path fill="#6AD6FF" d="M66.816 674.854s6.465-41.674 16.655-30.565c10.191 11.107 6.507 61.114 6.507 61.114s5.55-16.671 12.959-12.97c7.41 3.702.015 32.411.015 32.411s9.259-5.562 12.965-.005c3.706 5.554-10.547 12.042-10.547 12.042l-65.958.026s-15.167-1.846-20.729-11.104c-5.56-9.258 18.521-.008 18.521-.008s-32.429-42.583-25.025-55.552c7.403-12.968 29.64 16.656 29.64 16.656s-22.251-63.887-5.586-74.08c16.663-10.188 30.574 40.737 30.583 62.035"/><path fill="#FFF" d="M69.269 737.359a.463.463 0 0 0 .448-.578l-25.155-99.537a.463.463 0 1 0-.898.227l25.154 99.537a.467.467 0 0 0 .451.351"/><path fill="#FFF" d="M61.554 702.823c4.282-.002 7.975-1.551 10.982-4.607 4.364-4.441 7.261-11.915 8.607-22.218.998-7.638.722-14.07.718-14.136a.46.46 0 0 0-.463-.44l-.021.001a.46.46 0 0 0-.441.481c.011.253 1.029 25.399-9.063 35.662-2.941 2.99-6.602 4.437-10.817 4.324a.473.473 0 0 0-.477.45.462.462 0 0 0 .448.476c.179.004.354.007.527.007m3.091 22.115c.514 0 1.019-.03 1.519-.091a.462.462 0 1 0-.113-.919c-18.704 2.223-43.029-42.345-43.273-42.794a.463.463 0 1 0-.815.44c.062.114 6.238 11.496 14.689 22.448 10.726 13.892 20.132 20.919 27.993 20.916"/><path fill="#29ABE2" d="M990.195 707.961s108.57-116.537 28.504-96.446c-45.719 11.473 22.902-55.346-3.816-80.156-26.72-24.811-51.529 17.177-49.62 45.804 1.907 28.629-5.728 43.896-17.178 34.354-11.451-9.542-13.359-22.902-28.627-13.358-15.269 9.542-11.451 24.811-3.816 38.17 7.634 13.358 15.268 34.354 3.816 32.443-11.451-1.908-5.726-20.993-19.086-20.993-13.357 0-21.721 57.255 12.042 64.89l77.781-4.708z"/><path fill="#FFF" d="M966.661 712.719c-1.655-9.659-1.248-23.31 1.214-40.602 2.04-14.328 5.489-31.194 10.25-50.133 8.272-32.9 17.59-60.471 17.68-60.729a1.032 1.032 0 0 0-.646-1.279 1.038 1.038 0 0 0-1.279.645l-.012.033c-1.003 2.979-10.021 30.017-17.926 61.593-10.498 41.976-14.31 72.405-11.336 90.47l2.055.002z"/><path fill="#FFF" d="M965.286 704.503c3.647 0 14.259-11.641 32.439-35.585 14.01-18.45 27.392-37.554 27.522-37.739.154-.223.214-.488.166-.755a1.003 1.003 0 0 0-.987-.831c-.33 0-.642.161-.83.432-12.168 17.382-25.14 34.938-35.588 48.164-11.902 15.068-19.396 23.172-22.271 24.086l-.501.159-.385-.357c-5.059-4.694-25.939-52.396-38.74-83.313a1.003 1.003 0 0 0-1.315-.546 1.006 1.006 0 0 0-.547 1.317c3.148 7.606 11.387 27.328 19.833 46.125 14.143 31.474 18.687 37.606 20.136 38.461.402.236.669.382 1.068.382m-35.687 8.216c-12.605-11.553-25.633-40.201-28.222-46.076l-.075-.169a1.02 1.02 0 0 0-.934-.623 1.028 1.028 0 0 0-.939.653.94.94 0 0 0 .011.738c.557 1.301 13.631 31.607 27.262 45.477h2.897z"/><path fill="#C7F0FF" d="M859.229 708.072c0 2.153.352 4.221 1.014 6.148h28.528c.237-7.113 6.073-12.799 13.249-12.799.713 0 1.415.05 2.091.163 3.569-7.626 11.31-12.911 20.274-12.911.938 0 1.866.063 2.768.175 4.871-10.744 15.691-18.22 28.266-18.22 13.5 0 24.97 8.603 29.253 20.637a22.157 22.157 0 0 1 10.432-2.592c10.143 0 18.709 6.762 21.451 16.017a16.667 16.667 0 0 1 8.854-2.517c7.641 0 14.088 5.084 16.144 12.047h36.063c0-13.225-10.719-23.944-23.931-23.944a23.853 23.853 0 0 0-12.61 3.582c-3.895-13.174-16.092-22.778-30.518-22.778a31.676 31.676 0 0 0-14.853 3.67c-6.086-17.106-22.43-29.354-41.627-29.354-17.883 0-33.285 10.632-40.223 25.922a31.644 31.644 0 0 0-3.934-.235c-12.761 0-23.769 7.513-28.841 18.356a19.717 19.717 0 0 0-2.992-.225c-10.418 0-18.858 8.438-18.858 18.858"/><path fill="#6AD6FF" d="M888.771 714.221h152.777c-2.054-6.963-8.503-12.047-16.143-12.047-3.243 0-6.286.914-8.854 2.517-2.742-9.254-11.309-16.017-21.451-16.017-3.771 0-7.326.938-10.432 2.593-4.283-12.035-15.755-20.638-29.255-20.638-12.571 0-23.392 7.476-28.264 18.221-.9-.113-1.828-.176-2.768-.176-8.967 0-16.705 5.284-20.274 12.909a13.05 13.05 0 0 0-2.091-.16c-7.172.001-13.008 5.684-13.245 12.798"/><path fill="#0096FF" d="M965.757 724.344c0 1.622.271 3.181.77 4.636h164.013c0-9.975-8.088-18.063-18.063-18.063-3.489 0-6.75.989-9.51 2.706-2.941-9.941-12.141-17.189-23.031-17.189-4.048 0-7.86 1-11.206 2.772-4.59-12.911-16.916-22.154-31.4-22.154-13.497 0-25.12 8.024-30.354 19.564-.97-.123-1.96-.184-2.964-.184-9.63 0-17.938 5.67-21.768 13.854a14.353 14.353 0 0 0-2.25-.178c-7.864.001-14.237 6.373-14.237 14.236"/><path fill="#6AD6FF" d="M1076.629 685.719s-5.342-34.431-13.762-25.253c-8.419 9.177-5.376 50.491-5.376 50.491s-4.585-13.772-10.707-10.715c-6.12 3.059-.012 26.776-.012 26.776s-7.646-4.593-10.711-.004c-3.062 4.589 8.715 9.949 8.715 9.949l54.494.022s12.529-1.525 17.123-9.175c4.594-7.648-15.301-.006-15.301-.006s26.791-35.183 20.676-45.896c-6.116-10.713-24.487 13.762-24.487 13.762s18.383-52.781 4.614-61.203c-13.766-8.418-25.259 33.655-25.266 51.252"/><path fill="#FFF" d="M1074.604 737.359a.38.38 0 0 1-.37-.477l20.782-82.235a.382.382 0 0 1 .74.188l-20.781 82.235a.386.386 0 0 1-.371.289"/><path fill="#FFF" d="M1080.977 708.826c-3.537-.001-6.589-1.28-9.074-3.808-3.604-3.669-5.998-9.844-7.11-18.355-.824-6.31-.597-11.626-.594-11.679a.383.383 0 0 1 .765.035c-.01.209-.852 20.982 7.486 29.463 2.432 2.471 5.453 3.665 8.938 3.573a.39.39 0 0 1 .394.372.382.382 0 0 1-.371.393c-.147.004-.292.006-.434.006m-2.553 18.272a10.4 10.4 0 0 1-1.254-.075.381.381 0 0 1-.334-.426.384.384 0 0 1 .425-.333c15.454 1.836 35.551-34.984 35.752-35.356a.384.384 0 0 1 .674.365c-.051.094-5.153 9.499-12.137 18.546-8.862 11.476-16.634 17.282-23.126 17.279"/><path fill="#E3ECFF" d="M134.203 304.614v34.23c0 3.607 2.612 7.378 6.222 7.378h15.895c2.926 12.259 8.219 25.259 15.655 36.551l-10.986 10.565a6.531 6.531 0 0 0 0 9.24l24.205 24.205a6.533 6.533 0 0 0 9.24 0l11.242-11.24c11.395 7.258 24.145 12.35 37.221 15.074v15.539c0 3.608 2.914 7.123 6.522 7.123h34.229c3.608 0 6.646-3.515 6.646-7.123v-15.895a111.442 111.442 0 0 0 36.918-15.668l10.932 10.977c2.552 2.552 6.688 2.528 9.24-.022l24.204-24.251c2.552-2.552 2.552-6.781 0-9.334l-11.239-11.425c7.257-11.393 12.349-24.51 15.073-37.586h15.54c3.608 0 6.391-2.182 6.391-5.791v-34.229c0-3.609-2.781-5.745-6.391-5.745h-15.896c-2.926-14.71-8.215-26.075-15.653-37.368l10.99-11.383a6.531 6.531 0 0 0 .005-9.24l-24.193-24.204a6.511 6.511 0 0 0-9.222 0l-11.198 11.239c-11.394-7.256-24.06-12.35-37.135-15.073v-15.54c0-3.608-3.084-7.123-6.693-7.123h-34.229c-3.608 0-6.477 3.515-6.477 7.123v15.895c-13.076 2.926-25.71 8.217-37.002 15.654l-11.017-10.988a6.533 6.533 0 0 0-9.241-.002l-24.204 24.198a6.525 6.525 0 0 0 0 9.232l11.239 11.22c-7.256 11.395-12.349 23.284-15.073 37.177h-15.539c-3.608.001-6.221 3.001-6.221 6.61m50.891 16.274c0-44.562 36.124-80.685 80.685-80.685 44.562 0 80.686 36.123 80.686 80.685 0 44.561-36.124 80.684-80.686 80.684-44.561 0-80.685-36.123-80.685-80.684m190.819-100.752v14.498c0 1.528 1.107 3.125 2.636 3.125h6.732c1.239 5.192 3.481 10.699 6.632 15.482l-4.653 4.475a2.768 2.768 0 0 0 0 3.914l10.253 10.252a2.767 2.767 0 0 0 3.914 0l4.762-4.76c4.826 3.073 10.227 5.23 15.765 6.384v6.582c0 1.529 1.235 3.019 2.765 3.019h14.498c1.528 0 2.814-1.489 2.814-3.019v-6.731a47.23 47.23 0 0 0 15.639-6.636l4.631 4.648a2.767 2.767 0 0 0 3.914-.01l10.252-10.272a2.816 2.816 0 0 0 0-3.953l-4.762-4.839c3.073-4.825 5.23-10.382 6.385-15.921h6.582c1.528 0 2.707-.924 2.707-2.453v-14.499c0-1.527-1.179-2.433-2.707-2.433h-6.731c-1.239-6.23-3.479-11.044-6.63-15.828l4.654-4.821a2.765 2.765 0 0 0 .002-3.914l-10.248-10.252a2.756 2.756 0 0 0-3.905 0l-4.743 4.761a47.347 47.347 0 0 0-15.729-6.385v-6.583c0-1.527-1.307-3.017-2.834-3.017h-14.5c-1.527 0-2.742 1.489-2.742 3.017v6.733a47.345 47.345 0 0 0-15.674 6.631l-4.666-4.655a2.77 2.77 0 0 0-3.914-.001l-10.252 10.251a2.764 2.764 0 0 0 0 3.91l4.761 4.752c-3.073 4.826-5.23 9.863-6.384 15.747h-6.584c-1.532.001-2.64 1.272-2.64 2.801m21.139 6.893c0-19.106 15.487-34.595 34.595-34.595 19.105 0 34.595 15.488 34.595 34.595s-15.488 34.595-34.595 34.595c-19.108 0-34.595-15.489-34.595-34.595"/><path fill="#0C00BA" d="M470.036 631.39h-334.01V465.089c0-16.525 13.396-29.92 29.92-29.92h274.17c16.524 0 29.921 13.395 29.921 29.92V631.39h-.001z"/><path fill="#FFF" d="M152.033 451.175H454.03v164.21H152.033z"/><path fill="#3151C4" d="M470.036 631.39h-334.01v9.915c0 16.523 13.396 29.92 29.92 29.92h274.17c16.524 0 29.921-13.396 29.921-29.92v-9.915h-.001zm-112.452 73.215H248.479a5.497 5.497 0 1 0 0 10.995h109.104a5.498 5.498 0 0 0 .001-10.995"/><path fill="#0C00BA" d="M336.384 671.225H269.68l-5.864 33.38h78.429z"/><path fill="#3151C4" d="M311.896 651.985a8.865 8.865 0 1 1-17.73 0 8.865 8.865 0 0 1 17.73 0"/><path fill="#C2D2F5" d="M189.902 383.974h226.259v231.41H189.902z"/><path fill="#FF61A4" d="M189.902 383.974v-.394c0-8.721 7.068-15.79 15.789-15.79h194.681c8.721 0 15.789 7.069 15.789 15.79v.394H189.902z"/><path fill="#FFF" d="M202.707 383.974h200.647v231.41H202.707z"/><path fill="#FFF" d="M202.707 383.974h200.647v100.457H202.707z"/><path fill="#FFA3BE" d="M202.707 484.431h200.647v75.736H202.707zm9.662-108.711a4.83 4.83 0 0 1-4.831 4.83 4.83 4.83 0 1 1 0-9.661 4.831 4.831 0 0 1 4.831 4.831m75.234 2.416h-66.425a2.416 2.416 0 1 1 0-4.831h66.425a2.415 2.415 0 1 1 0 4.831"/><path fill="#6AD6FF" d="M254.683 541.553h-34.656a2.415 2.415 0 1 1 0-4.831h34.656a2.416 2.416 0 0 1 0 4.831m0 10.029h-34.656a2.414 2.414 0 1 1 0-4.83h34.656a2.415 2.415 0 1 1 0 4.83m120.769-129.963h-49.048a2.416 2.416 0 1 1 0-4.831h49.048a2.416 2.416 0 0 1 0 4.831m-14.391 9.903h-34.655a2.415 2.415 0 1 1 0-4.831h34.655a2.416 2.416 0 0 1 0 4.831m5.242 9.905h-39.897a2.415 2.415 0 1 1 0-4.831h39.897a2.416 2.416 0 1 1 0 4.831"/><path fill="#FF61A4" d="M364.334 457.527h-35.959a4.385 4.385 0 1 1 0-8.77h35.959a4.385 4.385 0 0 1 0 8.77m4.574 149.513h-35.96a4.385 4.385 0 1 1 0-8.771h35.96a4.386 4.386 0 0 1 0 8.771"/><path fill="#E6EBF5" d="M317.714 607.04h-80.491a4.385 4.385 0 1 1 0-8.771h80.491a4.386 4.386 0 0 1 0 8.771"/><path fill="#6AD6FF" d="M320.359 541.553h-34.655a2.415 2.415 0 1 1 0-4.831h34.655a2.416 2.416 0 0 1 0 4.831m0 10.029h-34.655a2.413 2.413 0 0 1-2.414-2.414 2.413 2.413 0 0 1 2.414-2.416h34.655a2.415 2.415 0 1 1 0 4.83m7.715 27.03h-50.087a2.415 2.415 0 1 1 0-4.831h50.087a2.416 2.416 0 0 1 0 4.831m-7.715 10.03h-34.655a2.415 2.415 0 1 1 0-4.831h34.655a2.416 2.416 0 0 1 0 4.831m65.688-47.089h-34.656a2.415 2.415 0 1 1 0-4.831h34.656a2.416 2.416 0 0 1 0 4.831m0 10.029h-34.656a2.414 2.414 0 1 1 0-4.83h34.656a2.415 2.415 0 1 1 0 4.83"/><path fill="#FFA3BE" d="M400.941 378.136h-14.474a2.415 2.415 0 1 1 0-4.831h14.474a2.415 2.415 0 1 1 0 4.831"/><path fill="#0083FF" d="M257.532 529.396h-40.355a4.808 4.808 0 0 1-4.808-4.808v-23.762a4.808 4.808 0 0 1 4.808-4.808h40.355a4.81 4.81 0 0 1 4.808 4.808v23.762a4.808 4.808 0 0 1-4.808 4.808"/><path fill="#1CBFF5" d="M323.209 529.396h-40.354a4.808 4.808 0 0 1-4.808-4.808v-23.762a4.808 4.808 0 0 1 4.808-4.808h40.354a4.81 4.81 0 0 1 4.809 4.808v23.762a4.81 4.81 0 0 1-4.809 4.808"/><path fill="#0083FF" d="M388.896 529.396H348.54a4.808 4.808 0 0 1-4.808-4.808v-23.762a4.808 4.808 0 0 1 4.808-4.808h40.355a4.81 4.81 0 0 1 4.808 4.808v23.762a4.808 4.808 0 0 1-4.807 4.808"/><path fill="#DAB3FF" d="M283.965 476.857a1.922 1.922 0 1 1-3.846 0 1.923 1.923 0 0 1 3.846 0m10.494 0a1.923 1.923 0 1 1-3.847 0 1.923 1.923 0 0 1 3.847 0m10.494 0a1.922 1.922 0 1 1-3.846.002 1.922 1.922 0 0 1 3.846-.002m10.495 0a1.923 1.923 0 1 1-3.847 0 1.923 1.923 0 0 1 3.847 0m10.495 0a1.922 1.922 0 1 1-3.844.002 1.922 1.922 0 0 1 3.844-.002"/><path fill="#F5F5F5" d="M202.707 484.431h168.227c-1.569-3.229-3.594-6.162-6.314-8.565-6.396-5.65-15.313-7.179-23.658-8.973a220.537 220.537 0 0 1-29.647-8.583c-4.934-1.812-10.048-3.981-13.229-8.164-2.991-3.932-3.822-9.061-4.293-13.979-.813-8.479-.839-17.039-2.128-25.459-1.29-8.42-3.964-16.867-9.404-23.422a30.266 30.266 0 0 0-3.21-3.313H202.71V484.43h-.003z"/><path fill="#1CBFF5" d="M282.043 439.535c0 14.823-12.019 26.84-26.841 26.84-14.823 0-26.841-12.017-26.841-26.84 0-14.821 12.018-26.84 26.841-26.84s26.841 12.019 26.841 26.84"/><path fill="#FF1176" d="M301.109 419.116c0 9.438-7.649 17.087-17.087 17.087s-17.087-7.649-17.087-17.087c0-9.437 7.649-17.087 17.087-17.087s17.087 7.65 17.087 17.087"/><path fill="#29ABE2" d="M902.851 293.829c0-26.83-21.75-48.581-48.581-48.581-26.83 0-48.581 21.75-48.581 48.581 0 8.457 2.394 16.808 6.665 24.091 2.161 3.685 4.799 6.971 7.725 10.07 2.793 2.96 6.528 4.883 9.184 7.941 2.292 2.642 2.564 5.831 3.673 8.99a9.648 9.648 0 0 0 9.107 6.46h24.491a9.648 9.648 0 0 0 9.092-6.415c.941-2.646 1.589-6.022 3.056-8.396 1.827-2.958 5.914-4.475 8.424-6.873 3.223-3.075 6.078-6.401 8.417-10.204 4.715-7.672 7.328-16.651 7.328-25.664"/><path fill="#FFF" d="M868.896 263.503c-.503 0-1.014-.1-1.505-.311a33.043 33.043 0 0 0-3.417-1.252c-2.017-.614-3.15-2.745-2.536-4.76s2.748-3.148 4.76-2.535c1.422.434 2.837.952 4.207 1.541a3.815 3.815 0 1 1-1.509 7.317m22.515 34.139a3.813 3.813 0 0 1-3.813-3.813c0-9.233-3.706-17.828-10.436-24.198a3.812 3.812 0 0 1-.147-5.391 3.813 3.813 0 0 1 5.39-.148c8.147 7.713 12.819 18.552 12.819 29.737a3.812 3.812 0 0 1-3.813 3.813m-17.015 1.538a2.06 2.06 0 0 0-2.38 1.678l-.198 1.146-3.981 2.642a4.703 4.703 0 0 1-5.325-.107l-3.009-2.177a8.792 8.792 0 0 0-10.229-.055l-3.228 2.281a4.703 4.703 0 0 1-5.295.071l-3.615-2.414-.254-1.514a2.06 2.06 0 0 0-4.06.681l8.712 51.97a2.059 2.059 0 1 0 4.061-.68l-7.524-44.881.396.263a8.78 8.78 0 0 0 4.88 1.47 8.789 8.789 0 0 0 5.078-1.603l3.228-2.281a4.676 4.676 0 0 1 5.438.029l3.01 2.176c2.952 2.137 6.977 2.216 10.014.203l.742-.492-7.797 45.106a2.058 2.058 0 1 0 4.056.701l8.96-51.833a2.063 2.063 0 0 0-1.68-2.38"/><path fill="#3151C4" d="M868.062 351.382h-27.583a3.734 3.734 0 0 0-3.734 3.734v13.356a3.734 3.734 0 0 0 3.734 3.734h3.365c1.248 4.594 5.437 7.979 10.426 7.979 4.99 0 9.179-3.385 10.427-7.979h3.365a3.733 3.733 0 0 0 3.733-3.734v-13.356a3.733 3.733 0 0 0-3.733-3.734"/><path fill="#E1E8F5" d="M854.474 235.521a2.223 2.223 0 0 1-2.224-2.224v-14.766a2.223 2.223 0 1 1 4.447 0v14.766a2.225 2.225 0 0 1-2.223 2.224m32.339 9.865a2.226 2.226 0 0 1-2.318-3.393l8.08-12.359a2.227 2.227 0 0 1 3.078-.644 2.227 2.227 0 0 1 .645 3.078l-8.08 12.357c-.337.515-.85.844-1.405.961m31.364 15.889l-12.979 7.046a2.222 2.222 0 1 1-2.121-3.907l12.978-7.047a2.224 2.224 0 0 1 2.122 3.908m-95.27-15.889a2.217 2.217 0 0 0 1.672-.315 2.226 2.226 0 0 0 .645-3.078l-8.08-12.359c-.672-1.026-2.05-1.315-3.077-.644s-1.314 2.05-.645 3.078l8.08 12.357a2.22 2.22 0 0 0 1.405.961m-31.363 15.889l12.976 7.046a2.224 2.224 0 1 0 2.122-3.908l-12.976-7.047a2.227 2.227 0 0 0-3.017.893 2.226 2.226 0 0 0 .895 3.016"/><path fill="#D43F92" d="M963.156 444.737c0 12.313-9.98 22.293-22.293 22.293s-22.293-9.979-22.293-22.293c0-12.312 9.98-22.293 22.293-22.293s22.293 9.983 22.293 22.293"/><path fill="#F4EFF4" d="M939.146 456.151c-.819 0-1.609-.33-2.188-.923l-7.367-7.555a3.054 3.054 0 0 1 .055-4.32 3.054 3.054 0 0 1 4.32.054l4.693 4.813 8.727-13.499a3.056 3.056 0 0 1 5.132 3.319l-10.804 16.716a3.065 3.065 0 0 1-2.568 1.395"/><path fill="#FFF" d="M749.162 667.934c0 31.028-25.152 56.182-56.181 56.182S636.8 698.964 636.8 667.934c0-31.027 25.153-56.181 56.182-56.181s56.18 25.153 56.18 56.181"/><path fill="#FF1176" d="M692.982 724.25c-15.042 0-29.184-5.858-39.821-16.494-10.636-10.638-16.494-24.779-16.494-39.821 0-15.043 5.858-29.185 16.494-39.82 10.639-10.637 24.779-16.494 39.821-16.494s29.185 5.857 39.82 16.494c10.636 10.638 16.494 24.777 16.494 39.82 0 15.042-5.857 29.185-16.494 39.821-10.636 10.635-24.778 16.494-39.82 16.494m0-101.258c-24.781 0-44.942 20.161-44.942 44.941 0 24.781 20.161 44.941 44.942 44.941s44.941-20.16 44.941-44.941c.001-24.78-20.159-44.941-44.941-44.941"/><path fill="#FF1176" d="M692.982 702.258c-18.926 0-34.323-15.397-34.323-34.323 0-18.925 15.397-34.322 34.323-34.322s34.323 15.397 34.323 34.322c.001 18.924-15.398 34.323-34.323 34.323m0-57.274c-12.655 0-22.949 10.295-22.949 22.949 0 12.655 10.294 22.95 22.949 22.95 12.654 0 22.949-10.295 22.949-22.95.001-12.654-10.294-22.949-22.949-22.949"/><path fill="#FF1176" d="M702.003 667.934a9.022 9.022 0 0 1-9.021 9.021c-4.979 0-9.02-4.039-9.02-9.021a9.02 9.02 0 1 1 18.041 0"/><path fill="#3151C4" d="M694.188 666.728l-47.991-47.991 1.501-7.887-14.508-14.508-1.889 9.932-9.934 1.89 14.51 14.509 7.922-1.508 47.977 47.977c.332.334.771.5 1.206.5s.873-.166 1.206-.5a1.708 1.708 0 0 0 0-2.414"/><path fill="#C7F0FF" d="M911.53 723.11H736.881c-7.108 0-12.871-5.763-12.871-12.872v-235.57c0-7.107 5.763-12.87 12.871-12.87H911.53c7.109 0 12.872 5.763 12.872 12.87v235.57c0 7.11-5.762 12.872-12.872 12.872"/><path fill="#0083FF" d="M848.69 453.472c0-13.522-10.962-24.484-24.485-24.484-13.521 0-24.483 10.962-24.483 24.484 0 13.521 10.963 24.483 24.483 24.483 13.524.001 24.485-10.961 24.485-24.483"/><path fill="#3151C4" d="M835.002 453.472c0-5.963-4.834-10.796-10.797-10.796s-10.797 4.833-10.797 10.796 4.834 10.796 10.797 10.796 10.797-4.833 10.797-10.796"/><path fill="#0083FF" d="M864.889 490.802h-81.365a18.712 18.712 0 0 1-17.28-11.532l-6.732-16.206c-1.897-4.565 1.457-9.593 6.399-9.593h116.592c4.942 0 8.298 5.026 6.4 9.593l-6.733 16.206a18.715 18.715 0 0 1-17.281 11.532"/><path fill="#00ABFF" d="M756.131 545.294a3.546 3.546 0 0 1-2.508-1.038l-9.341-9.344a3.545 3.545 0 1 1 5.015-5.014l6.472 6.471 12.563-16.512a3.547 3.547 0 0 1 5.645 4.294l-15.021 19.742a3.548 3.548 0 0 1-2.583 1.391c-.084.005-.162.01-.242.01m141.77-8.956H791.229a4.46 4.46 0 0 1-4.461-4.461 4.461 4.461 0 0 1 4.461-4.463h106.673a4.462 4.462 0 0 1-.001 8.924m-141.77 56.233a3.546 3.546 0 0 1-2.508-1.038l-9.341-9.342a3.545 3.545 0 1 1 5.015-5.014l6.472 6.471 12.563-16.512a3.546 3.546 0 1 1 5.645 4.294l-15.021 19.742a3.561 3.561 0 0 1-2.825 1.399m141.77-8.955H791.229a4.46 4.46 0 0 1-4.461-4.461 4.46 4.46 0 0 1 4.461-4.462h106.673a4.462 4.462 0 0 1-.001 8.923m-141.77 56.235a3.546 3.546 0 0 1-2.508-1.038l-9.341-9.342a3.547 3.547 0 0 1 5.015-5.016l6.472 6.472 12.563-16.513a3.546 3.546 0 0 1 5.645 4.294l-15.021 19.742a3.552 3.552 0 0 1-2.825 1.401m141.77-8.956H791.229a4.46 4.46 0 1 1 0-8.923h106.673a4.46 4.46 0 1 1-.001 8.923m-141.77 56.235a3.546 3.546 0 0 1-2.508-1.038l-9.341-9.342a3.546 3.546 0 1 1 5.015-5.015l6.472 6.472 12.563-16.513a3.547 3.547 0 0 1 5.645 4.294l-15.021 19.742a3.555 3.555 0 0 1-2.825 1.4m141.77-8.955H791.229a4.46 4.46 0 0 1-4.461-4.461 4.46 4.46 0 0 1 4.461-4.462h106.673a4.46 4.46 0 0 1 4.461 4.462 4.463 4.463 0 0 1-4.462 4.461"/><path fill="#0096FF" d="M967.018 404.084h-52.307c-8.114 0-14.692 6.578-14.692 14.692v66.196c0 8.114 6.578 14.691 14.692 14.691h9.672v16.107c0 3.642 4.683 5.123 6.775 2.146L944 499.665h23.018c8.115 0 14.691-6.577 14.691-14.691v-66.196c0-8.115-6.576-14.694-14.691-14.694"/><path fill="#3151C4" d="M968.131 443.38c0 15.059-12.208 27.266-27.268 27.266-15.059 0-27.267-12.207-27.267-27.266 0-15.061 12.208-27.268 27.267-27.268 15.06 0 27.268 12.207 27.268 27.268"/><path fill="#FF1176" d="M940.864 416.112v27.267h27.267c-.001-15.059-12.208-27.267-27.267-27.267"/><path fill="#FFF" d="M952.685 467.956c9.14-4.402 15.446-13.754 15.446-24.577h-27.269l11.823 24.577z"/><path fill="#1CBFF5" d="M959.627 478.74h-37.525a4.448 4.448 0 0 0 0 8.897h37.525a4.447 4.447 0 0 0 4.446-4.449 4.446 4.446 0 0 0-4.446-4.448"/><path fill="#FF61A4" d="M252.964 662.341c0 37.481-30.386 67.87-67.87 67.87-37.482 0-67.869-30.389-67.869-67.87 0-37.483 30.387-67.87 67.869-67.87 37.484-.001 67.87 30.385 67.87 67.87"/><path fill="#FF1176" d="M242.229 662.341c0 31.555-25.58 57.135-57.135 57.135-31.554 0-57.135-25.58-57.135-57.135 0-31.557 25.581-57.136 57.135-57.136s57.135 25.579 57.135 57.136"/><path fill="#FF61A4" d="M234.745 662.341c0 27.422-22.229 49.649-49.651 49.649s-49.65-22.229-49.65-49.649 22.229-49.651 49.65-49.651c27.423-.002 49.651 22.23 49.651 49.651"/><path fill="#FF1176" d="M182.515 692.36c-4.228-.621-7.991-2.255-11.289-4.904-3.298-2.648-5.653-6.454-7.062-11.417l9.726-3.975a14.596 14.596 0 0 0 3.129 6.046c1.522 1.776 3.354 3.002 5.496 3.681v-16.067l-.761-.339a38.67 38.67 0 0 1-5.877-2.791c-1.833-1.07-3.44-2.311-4.82-3.721a16.804 16.804 0 0 1-3.298-4.777c-.818-1.776-1.228-3.764-1.228-5.962 0-2.03.365-3.946 1.101-5.751a14.729 14.729 0 0 1 3.171-4.82c1.381-1.408 3.057-2.579 5.031-3.509 1.973-.93 4.199-1.536 6.681-1.818v-7.271h7.526v7.44c2.255.339 4.214.932 5.878 1.776 1.661.845 3.1 1.818 4.313 2.917 1.211 1.1 2.186 2.271 2.917 3.51.732 1.24 1.297 2.452 1.692 3.637l-9.472 4.229c-.396-1.127-1.016-2.199-1.86-3.213-.847-1.016-2.002-1.832-3.468-2.453v15.138c2.424 1.016 4.623 2.06 6.596 3.128 1.973 1.072 3.665 2.284 5.075 3.639 1.407 1.353 2.479 2.889 3.213 4.606.73 1.723 1.099 3.708 1.099 5.962 0 2.537-.437 4.793-1.31 6.768-.875 1.974-2.044 3.665-3.511 5.074-1.467 1.407-3.171 2.534-5.115 3.382a25.12 25.12 0 0 1-6.047 1.774v7.442h-7.526v-7.361zm-5.581-44.226c0 1.353.437 2.522 1.312 3.509.873.987 2.297 1.988 4.271 3.002v-12.346c-1.69.451-3.044 1.184-4.06 2.198-1.017 1.014-1.523 2.227-1.523 3.637m18.265 27.228c0-1.465-.396-2.677-1.185-3.636-.79-.958-2.114-1.916-3.975-2.876v12.938c1.521-.507 2.762-1.312 3.722-2.409.959-1.1 1.438-2.438 1.438-4.017"/><path fill="#6AD6FF" d="M584.021 729.867H461.189c-7.175 0-12.99-5.815-12.99-12.992v-61.979c0-7.175 5.815-12.992 12.991-12.992h122.83c7.175 0 12.992 5.817 12.992 12.992v61.979c.001 7.177-5.817 12.992-12.991 12.992"/><path fill="#30A9FF" d="M590.954 721.285l-66.134-43.303a2.176 2.176 0 0 0-2.216-.092 2.176 2.176 0 0 0-2.216.092l-66.134 43.303a2.182 2.182 0 0 0 2.389 3.651l65.959-43.189 65.959 43.189a2.182 2.182 0 0 0 2.393-3.651"/><path fill="#29ABE2" d="M531.729 693.384l63.712-49.724c-.92-1.086-2.166-1.757-3.543-1.757H453.313c-1.241 0-2.378.543-3.263 1.445l64.109 50.034c5.362 4.183 12.208 4.183 17.57.002"/><path fill="#E3ECFF" d="M859.229 148.07c0 1.491-.249 2.924-.707 4.262H707.74c0-9.17 7.438-16.605 16.606-16.605 3.207 0 6.206.91 8.743 2.487 2.702-9.14 11.159-15.804 21.173-15.804 3.721 0 7.226.92 10.301 2.55 4.22-11.871 15.552-20.366 28.868-20.366 12.408 0 23.095 7.377 27.903 17.986.893-.114 1.803-.17 2.726-.17 8.854 0 16.492 5.213 20.01 12.738a13.082 13.082 0 0 1 2.07-.163c7.23 0 13.089 5.859 13.089 13.085M470.586 54.553c0 1.345-.227 2.638-.64 3.844H333.959c0-8.271 6.707-14.978 14.978-14.978 2.894 0 5.597.821 7.885 2.244 2.438-8.243 10.065-14.253 19.098-14.253 3.354 0 6.517.829 9.291 2.299 3.805-10.706 14.024-18.369 26.034-18.369 11.19 0 20.828 6.654 25.166 16.223a19.366 19.366 0 0 1 2.457-.152c7.985 0 14.874 4.701 18.047 11.488a11.848 11.848 0 0 1 1.867-.147c6.52 0 11.804 5.283 11.804 11.801"/><path fill="#C7F0FF" d="M1049.897 199.05l2.575 4.711c.184.335.459.609.793.793l4.711 2.575c1.382.757 1.382 2.742 0 3.498l-4.711 2.576a2.01 2.01 0 0 0-.793.793l-2.575 4.71c-.757 1.383-2.742 1.383-3.498 0l-2.576-4.71a1.997 1.997 0 0 0-.793-.793l-4.71-2.576c-1.383-.756-1.383-2.741 0-3.498l4.71-2.575c.335-.184.61-.458.793-.793l2.576-4.711c.756-1.383 2.742-1.383 3.498 0m-714.188-40.591l2.575 4.71c.184.335.457.61.793.793l4.709 2.576c1.385.756 1.385 2.742 0 3.498l-4.709 2.576a1.99 1.99 0 0 0-.793.793l-2.575 4.71c-.757 1.383-2.742 1.383-3.498 0l-2.576-4.71a2.003 2.003 0 0 0-.793-.793l-4.71-2.576c-1.384-.756-1.384-2.742 0-3.498l4.71-2.576c.335-.183.608-.458.793-.793l2.576-4.71c.756-1.383 2.741-1.383 3.498 0"/><path fill="#29ABE2" d="M118.28 116.282l2.576 4.71a2 2 0 0 0 .792.793l4.711 2.576c1.383.756 1.383 2.742 0 3.498l-4.711 2.576a2 2 0 0 0-.792.793l-2.576 4.71c-.756 1.383-2.741 1.383-3.497 0l-2.576-4.71a2.003 2.003 0 0 0-.793-.793l-4.71-2.576c-1.384-.756-1.384-2.742 0-3.498l4.71-2.576c.335-.183.608-.458.793-.793l2.576-4.71c.755-1.383 2.741-1.383 3.497 0"/><path fill="#FF61A4" d="M942.613 299.284l2.576 4.71c.183.335.458.61.793.793l4.71 2.576c1.383.756 1.383 2.742 0 3.498l-4.71 2.576a1.99 1.99 0 0 0-.793.793l-2.576 4.71c-.756 1.383-2.742 1.383-3.498 0l-2.576-4.71a1.99 1.99 0 0 0-.793-.793l-4.71-2.576c-1.383-.756-1.383-2.742 0-3.498l4.71-2.576a1.99 1.99 0 0 0 .793-.793l2.576-4.71c.755-1.383 2.742-1.383 3.498 0"/><path fill="#FFA1B9" d="M315.752 760.113c.642.342 1.41.737 2.215 1.141 2.14 1.069 5.885-3.211 6.955-4.814.668-1.001 3.215-2.842 5.162-4.077-4.094-7.692.188-32.304-6.769-40.863-5.766-7.095-11.77-.534-11.77-.534s9.095 24.074 9.095 32.635c.002 5.101-1.321 11.575-4.888 16.512"/><path fill="#0E386C" d="M312.081 769.813c5.886-.535 9.096-8.025 10.699-8.56 1.605-.535-1.069 6.42.535 6.42 1.605 0 4.28.533 4.28-1.605s4.28-7.49 2.675-11.77c-.155-.412-.209-1.075-.188-1.938-1.946 1.236-4.493 3.077-5.161 4.077-1.07 1.605-4.815 5.885-6.955 4.815a92.996 92.996 0 0 1-2.215-1.141c-2.414 3.343-4.63 5.74-5.275 5.954-1.606.538-4.28 4.283 1.605 3.748m-100.81-17.987a2.8 2.8 0 0 1 2.676 1.959c1.049 3.327 3.343 9.898 5.639 11.733 1.391 1.114 2.408 2.477 3.108 3.643.685 1.137-.159 2.583-1.483 2.583h-15.932a2.845 2.845 0 0 1-2.832-3.109l1.576-16.809h7.248z"/><path fill="#FFA1B9" d="M267.677 644.09s3.21-2.142 5.35-.535c2.142 1.604 3.745 8.023 3.745 8.023s-4.353 3.08-8.061 1.54c-3.709-1.54-9.061-6.354-9.061-6.354l4.815-5.885 3.212 3.211z"/><path fill="#0076FF" d="M236.682 604.503c3.493 4.854 11.197 21.42 14.4 24.635 3.205 3.216 17.097 13.405 17.097 13.405s-1.877 9.321-3.622 9.472c-1.745.149-16.704-11.646-18.84-13.791-2.137-2.145-18.69-19.828-19.219-23.039-.529-3.212 3.245-20.326 10.184-10.682"/><path fill="#FFB5C8" d="M242.532 557.954c2.14 1.07 4.813 4.28 4.278 12.841-.534 8.561-2.14 15.022-8.56 11.791l-5.351 10.145-9.096-6.42s4.815-8.561 3.745-12.306c-1.069-3.744-3.745-13.909 1.07-16.051 4.819-2.14 13.914 0 13.914 0"/><path fill="#0E386C" d="M227.018 757.959v10.511a2.414 2.414 0 0 0 2.414 2.414h22.352c2.8 0 3.359-3.973.664-4.735-.094-.026-.188-.054-.284-.079-9.63-2.676-10.7-5.886-12.306-8.024-1.107-1.478-6.801-2.189-10.223-2.489a2.407 2.407 0 0 0-2.617 2.402"/><path fill="#0A1A89" d="M242.532 677.259l-.938 83.191s-10.38 1.574-14.579 0c-2.14-.803-.534-10.968-1.069-16.853-.534-5.886 1.604-16.584 1.069-21.936-.534-5.35-6.955-49.755-6.955-49.755l22.472 5.353z"/><path fill="#0A1A89" d="M235.042 671.908s-10.165 41.73-11.771 48.15c-1.604 6.419-4.814 37.982-5.886 38.519-1.069.535-10.533 2.142-13.826 0-3.293-2.14 1.521-39.054 3.127-44.938 1.604-5.886 2.675-44.94 2.675-44.94l25.681 3.209z"/><path fill="#0083FF" d="M223.807 586.31l-1.069 1.069s-5.351 5.885-7.489 9.63c-2.14 3.745-6.42 57.244-8.025 64.198-1.604 6.955 0 14.445 0 14.445 7.49 4.814 39.591 4.814 39.591 4.814v-22.471c0-6.42-2.676-44.938-3.211-48.147-.535-3.211-10.699-17.12-10.699-17.12l-9.098-6.418z"/><path fill="#FF5482" d="M203.007 640.162l8.913 21.105a1.658 1.658 0 0 0 2.191.877l28.211-12.289 1.932-.84a1.655 1.655 0 0 0 .873-2.15l-9.405-23.043a1.652 1.652 0 0 0-2.284-.85l-4.371 2.22-25.278 12.846a1.657 1.657 0 0 0-.782 2.124"/><path fill="#E5004F" d="M228.719 636.614a6.077 6.077 0 0 0 2.477 5.082l11.129 8.159 1.931-.84a1.655 1.655 0 0 0 .873-2.15l-9.405-23.043a1.652 1.652 0 0 0-2.284-.85l-4.371 2.22-.35 11.422z"/><path fill="#FFB5C8" d="M223.272 649.974s1.069 2.675 3.21 2.14 3.744.813 4.814 2.545c1.07 1.735 3.21 2.271 1.07 3.875-2.142 1.605-8.025 4.815-9.631 3.745-1.604-1.068-5.351-9.63-5.351-9.63l5.888-2.675z"/><path fill="#FFF" d="M227.553 583.1l7.432 5.107a1.52 1.52 0 0 1 .474 1.979l-1.947 3.575a.127.127 0 0 1-.19.037l-9.086-7.351a2.411 2.411 0 0 1-.649-2.938l.351-.716a1.519 1.519 0 0 1 2.182-.611l1.433.918z"/><path fill="#0076FF" d="M238.604 600.755s4.997 9.095 5.102 9.908c.104.813-3.313-2.419-3.85-2.419s-4.279-8.024-4.279-8.024l3.027.535z"/><path fill="#0076FF" d="M224.115 584.213a.742.742 0 0 0-1.14.41c-.27.99-.58 2.415-.239 2.757.534.534 8.561 11.771 8.561 11.771l9.082 4.499s-7.479-12.524-10.688-15.199a84.495 84.495 0 0 0-5.576-4.238"/><path fill="#0096FF" d="M218.793 592.7c2.532-1.567 7.737 3.759 7.73 7.504s-11.802 18.169-11.81 21.914c-.006 3.745 11.725 26.235 10.651 27.839s-6.967 6.407-9.104 5.334-14.395-28.381-14.387-32.66 9.167-25.129 16.92-29.931"/><path fill="#0A1A89" d="M238.787 563.84c1.481-1.234 7.489 0 9.095-2.141 1.604-2.14 2.675-8.024-1.069-8.024-3.746 0-19.261-.534-20.865 1.604-1.604 2.141-3.744 8.561-2.141 11.771 1.605 3.211 2.439 8.759 3.896 8.393 1.455-.367 4.13-.367 3.595-2.507-.535-2.141-2.675-6.42 0-6.955s2.675 5.885 3.21 5.885 1.069-5.351 4.279-8.026"/><path fill="#FFB5C8" d="M311.012 577.215s-8.025.534-8.025 13.375 6.955 8.561 6.955 8.561l2.14 8.024 8.025-3.21s-4.28-5.351-2.675-6.955c1.604-1.604 6.955-5.351 5.35-11.771-1.605-6.42-4.815-10.165-11.77-8.024"/><path fill="#FF5482" d="M324.387 610.385s13.909 24.074 13.375 31.029c-.535 6.955-7.49 17.12-7.49 17.12s-11.771-13.909-12.84-16.05c-1.07-2.141-.535-28.354 2.14-30.495 2.673-2.14 4.815-1.604 4.815-1.604"/><path fill="#6AD6FF" d="M319.035 639.809l24.076 20.33-12.84 20.33-14.981-28.891z"/><path fill="#FFB5C8" d="M284.262 645.693s-4.815 1.605-6.42 1.07c-1.605-.535-2.676-3.745-4.815-3.21-2.139.535-1.068 1.604-2.14 2.14s-4.815 3.21-4.28 4.815c.535 1.604 4.815 5.35 6.42 4.813 1.605-.534 4.815-4.278 10.165-3.745 5.351.535 3.745-6.42 3.745-6.42l-2.675.537zm13.835 113.885c.642.343 1.412.738 2.215 1.141 2.14 1.069 5.885-3.21 6.955-4.814.669-1.001 3.215-2.841 5.163-4.077.229-8.041 7.366-33.667 4.467-41.397-3.21-8.561-11.77 1.069-11.77 1.069s.534 22.471.534 31.03c0 5.103-3.998 12.11-7.564 17.048"/><path fill="#0E386C" d="M294.427 769.277c5.885-.535 9.095-8.023 10.7-8.56 1.604-.535-1.07 6.42.533 6.42 1.605 0 4.28.535 4.28-1.605s4.28-7.489 2.675-11.77c-.154-.412-.209-1.075-.187-1.938-1.948 1.236-4.494 3.077-5.163 4.077-1.07 1.605-4.815 5.885-6.955 4.815a91.343 91.343 0 0 1-2.215-1.141c-2.413 3.345-4.628 5.74-5.275 5.954-1.603.538-4.279 4.284 1.607 3.748"/><path fill="#0B199A" d="M330.271 663.349h-27.82s.535 6.42 1.605 10.7c1.069 4.278-1.07 7.488-.535 16.05.535 8.56.535 20.33.535 22.47s5.35 3.745 8.56 3.745 12.84-1.07 12.84-3.21-.534-17.655 1.07-23.005c1.605-5.351 6.42-16.585 3.745-26.75"/><path fill="#E5004F" d="M323.316 602.894s-10.7 2.141-13.91 6.421c-3.21 4.279-7.489 16.05-9.63 18.725-2.14 2.676 2.675 12.841 2.675 16.585 0 3.745-8.024 18.725 0 18.725h27.82c4.279 0-5.35-20.329-4.28-23.539 1.07-3.21 3.745-21.936 1.604-27.819-2.14-5.888-4.279-9.098-4.279-9.098"/><path fill="#2EC3F5" d="M323.316 599.149l-15.515 5.885v6.834l15.977-8.22z"/><path fill="#FF5482" d="M318.502 609.849s-5.352 0-8.025 9.096c-2.676 9.095-3.21 14.444-7.49 18.189-4.279 3.745-10.165 2.14-11.77 3.745-1.605 1.604 0 2.675-1.605 2.675-1.604 0-6.42.535-6.42 1.07 0 .534-1.069 7.489 0 8.023 1.07.535 5.886-1.069 6.42 0 .535 1.07-1.069 4.815 5.886 5.352 6.954.535 20.588-3.782 21.262-9.649.674-5.865 4.418-19.24 5.487-25.126 1.069-5.884 2.14-12.839-3.745-13.375"/><path fill="#0A1A89" d="M313.151 575.074s-8.56-.535-10.165 3.745c-1.604 4.28 1.605 5.351 4.814 5.351 3.211 0 5.886 2.141 5.886 4.814s1.069-.535 2.14-2.675c1.07-2.142 3.21-1.605 3.21 1.069 0 2.676-1.068 3.744-2.14 3.744s2.178 4.361 1.354 5.123c-.819.763 1.854 1.297 3.46-.843 1.604-2.14 7.489-6.955 4.279-13.375s-4.278-7.488-12.838-6.953"/><path fill="#1B31C3" d="M874.495 602.986l27.068-5.316a.894.894 0 0 1 1.058.995l-3.369 25.033a.893.893 0 0 1-.744.764l-24.181 3.868a.892.892 0 0 1-1.034-.899l.481-23.584a.896.896 0 0 1 .721-.861"/><path fill="#C7F0FF" d="M876.072 604.543l22.909-4.296a.895.895 0 0 1 1.051.999l-2.851 20.904a.898.898 0 0 1-.738.762l-20.059 3.344a.894.894 0 0 1-1.041-.883v-19.951a.892.892 0 0 1 .729-.879"/><path d="M880.004 615.035c1.553 3.107 9.319 16.055 6.214 19.16-3.106 3.107-9.279 1.733-11.89-5.865-2.609-7.599-3.646-13.295-3.646-13.295h9.322zm-31.07-53.338c-2.59 3.107-3.107 21.75-1.037 24.339 2.072 2.589 5.697 1.555 5.697 1.555l1.035 11.393 11.393-1.554s-2.07-8.805-1.035-13.464c1.035-4.66 6.731-17.606 1.035-21.231-5.697-3.627-17.088-1.038-17.088-1.038m-17.609 40.91s-2.069 2.07-9.319 1.036c-7.25-1.036-20.196-6.732-20.196-6.732s-1.554-5.179-.519-7.25c1.035-2.07 0-6.73-1.555-3.105-1.553 3.625-1.553 5.694-3.105 5.178-1.555-.519-8.285-11.91-9.841-10.874-1.553 1.035 3.625 8.285 3.108 9.839-.519 1.553-.519 7.768 1.035 9.321 1.554 1.553 28.999 13.98 28.999 13.98s8.285 2.071 15.018-.518c6.734-2.589-3.625-10.875-3.625-10.875" fill="#FFB5C8"/><linearGradient id="a" gradientUnits="userSpaceOnUse" x1="-1612.348" y1="-676.138" x2="-1611.348" y2="-676.138" gradientTransform="translate(35271.938 15200.235) scale(21.3565)"><stop offset="0" stop-color="#18003f"/><stop offset=".229" stop-color="#150058"/><stop offset=".712" stop-color="#0d0097"/><stop offset="1" stop-color="#0800bf"/></linearGradient><path fill="url(#a)" d="M837.911 751.229h22.413v18.125h-22.413z"/><linearGradient id="b" gradientUnits="userSpaceOnUse" x1="-1611.464" y1="-676.229" x2="-1610.465" y2="-676.229" gradientTransform="translate(37826.086 16270.308) scale(22.9345)"><stop offset="0" stop-color="#18003f"/><stop offset=".229" stop-color="#150058"/><stop offset=".712" stop-color="#0d0097"/><stop offset="1" stop-color="#0800bf"/></linearGradient><path fill="url(#b)" d="M867.575 752.783h24.338v17.088h-24.338z"/><path fill="#0083FF" d="M839.611 644.035s-1.035 21.231 0 26.409c1.036 5.18 2.072 21.232 4.145 36.769 2.071 15.535 4.659 37.284 3.625 40.392-1.036 3.107-1.036 8.286-1.036 8.286s8.559 4.304 12.047.856c3.489-3.446-.136-10.18-.136-10.18s1.034-18.642-.52-26.409c-1.554-7.767-1.554-48.158 0-48.678 1.554-.518 2.59 34.179 4.145 38.32 1.553 4.143 1.034 19.678 2.07 26.928 1.035 7.25-.519 22.269 2.589 23.304 3.106 1.035 7.945.042 9.929-2.31 1.982-2.352-.089-5.977-.089-8.564 0-2.591.518-25.894-1.554-35.215-2.071-9.32 1.554-41.427 1.034-49.193-.518-7.77-5.178-24.857-5.178-24.857h-31.071v4.142z"/><path fill="#FF5482" d="M867.058 588.107s-13.982 0-15.535 1.554c-1.554 1.555-2.072 6.216-2.072 6.216l19.161-.52-1.554-7.25z"/><path fill="#0A1A89" d="M869.646 593.286s-4.143-2.07-9.32-1.554c-5.18.518-16.053 3.107-21.231 4.66-5.178 1.555-13.982 1.555-14.499 3.625-.519 2.071 2.589 17.09 6.214 17.606 3.624.519 8.285-1.035 8.285-1.035s-6.732 22.784-4.144 25.893c2.59 3.106 4.494 5.477 4.494 5.477s11.041-1.852 18.81-1.852c7.768 0 14.092.258 14.092.258s3.516-1.293 2.997-3.883-2.05-11.686-2.05-11.686 11.889-3.332 11.889-9.547c0 0-3.625-7.25-4.66-10.875s-1.035-10.875-4.66-13.464-6.217-3.623-6.217-3.623m-5.177-33.659s-5.696-2.59-11.395-1.555c-5.695 1.036-12.428.519-11.392 6.731.904 5.431 4.121 4.426 5.167 6.098 1.047 1.671 2.6 8.402 2.6 8.402s-2.07-6.731-.517-7.769c1.553-1.035 3.625 1.036 3.625 3.107s-.52 6.215 2.069 7.768c2.591 1.555 10.357 1.555 10.357 1.555s2.589-6.215 3.625-7.769c1.038-1.551 5.18-11.391-4.139-16.568"/><path fill="#4000A7" d="M762.928 485.406s2.48 5.5 2.48 8.396.164 3.552-3.109 4.86c-3.272 1.31-20.492 5.732-20.492 5.732l10.018-10.594 2.868-5.615 8.235-2.779z"/><path fill="#FFB1B9" d="M749.618 498.638s14.605-3.676 15.449-7.173c-.679-2.817-2.14-6.061-2.14-6.061l-8.236 2.783-2.868 5.614-3.218 3.402 1.013 1.435z"/><path fill="#E5004F" d="M780.274 434.827s-34.546 1.089-37.919 7.237c-3.373 6.149 9.896 48.204 9.896 48.204s6.746 1.04 12.818-3.753l-5.396-32.292 24.378-3.537-3.777-15.859z"/><path fill="#4000A7" d="M743.486 494.324s.47 5.722-10.812 8.854c-11.282 3.134-9.871 5.327-9.401 7.208.471 1.88 16.922.313 23.659 0 6.737-.314 8.146-.352 7.679-4.798-.472-4.447-1.097-7.474-.94-11.266l-10.185.002z"/><path fill="#FFB1B9" d="M743.486 494.324s.47 5.722-10.812 8.854c-1.963.545-3.534 1.062-4.801 1.553.979.633 3.875 1.906 10.949 1.492 7.98-.468 13.948-2.646 15.479-3.254-.393-3.123-.756-5.646-.634-8.646l-10.181.001z"/><path fill="#E5004F" d="M795.7 362.855c-9.171-.462-12.991 5.655-13.483 10.818s-.566 9.835-1.942 11.803c-1.377 1.967.836 5.447 2.926 8.071 2.091 2.624-3.139 8.783-1.844 11.477 1.294 2.692 6.418 5.655 6.418 5.655s29.849-3.812 29.357-9.59c-.492-5.777-1.723-9.221-6.147-13.646-4.426-4.426-.722-6.516-1.037-9.712-.313-3.197-4.003-3.565-5.231-7.745-1.232-4.18-4.138-6.885-9.017-7.131"/><path fill="#FF2973" d="M807.932 440.942s-.597 16.724-16.672 15.59c-11.885-.839-32.354-.052-32.354-.052l-4.358 41.409s-9.907 2.772-13.869-2.181c0 0 2.575-39.698 3.171-44.22.594-4.521 1.584-9.274 8.122-10.859s27.343-4.358 30.313-4.954c2.973-.595 6.52-3.961 6.52-3.961l19.127 9.228z"/><path fill="#052894" d="M798.692 388.684c6.182-.695 14.243 4.446 16.05 10.146 1.808 5.698-2.224 15.149-4.309 23.07-2.084 7.923-2.501 19.041-2.501 19.041s-20.292 5.004-27.658-6.114c0 0 4.169-9.313 3.335-15.705-.833-6.395-2.223-9.59 0-14.177 2.224-4.586 4.587-12.508 7.506-13.481 2.917-.973 7.577-2.78 7.577-2.78"/><path fill="#FFB1B9" d="M788.336 369.087c-3.832 1.788-5.005 5.42-3.06 11.397 1.946 5.976 4.865 11.396 10.146 7.922 5.28-3.475 5.838-9.313 5.697-12.231-.138-2.918-4.445-10.98-12.783-7.088"/><path fill="#FFB1B9" d="M793.895 386.46l2.225 7.088s7.228-.598 7.365-4.052c.139-3.453-2.445-10.725-2.445-10.725l-7.145 7.689zm13.342 15.289c.974 5.143 7.366 23.21 7.366 24.46 0 0-12.243 4.437-18.902 4.865v5.42s10.702-.139 17.651-1.251c6.948-1.11 10.841-2.918 10.841-3.891s-2.085-17.096-4.447-25.573c-2.362-8.479-5.281-13.204-9.799-12.231-4.517.973-2.71 8.201-2.71 8.201"/><path fill="#FFB1B9" d="M795.7 431.074s-7.307-.417-9.421-1.111-7.853.557-8.943 2.642c-1.092 2.085 4.188 4.432 6.06 3.891 1.872-.54 1.872-1.568 3.743-1.476s1.967 4.543 8.563 1.476l-.002-5.422z"/><path fill="#E5004F" d="M785.412 369.248s-.368 2.705 3.442 4.181c3.812 1.475 7.254 1.967 7.746 6.393.49 4.426 2.193 4.192 4.539 6.934 2.344 2.741 6.646 5.04 6.646 2.741s-6.023-18.772-6.023-18.772-4.549-5.163-8.482-4.917c-3.932.244-7.868 3.44-7.868 3.44"/><path fill="#5A66D4" d="M783.266 439.969h-28.442a2.397 2.397 0 0 1 0-4.794h28.442c1.324 0 2.396 1.073 2.396 2.397s-1.072 2.397-2.396 2.397"/><path fill="#5A66D4" d="M759.221 407.809l14.023 32.16H752.61l-13.398-30.726a1.795 1.795 0 0 1 1.646-2.512h16.719a1.799 1.799 0 0 1 1.644 1.078"/><path fill="#0E386C" d="M344.932 368.789s-.546 1.344 0 2.301c.545.957 4.031 1.505 6.354 1.505 2.325 0 5.881-.937 5.881-1.938 0-1.528-.531-1.872-.531-1.872l-11.704.004zm38.447.442s-.365 1.197-.242 2.624a.61.61 0 0 0 .618.559l8.199-.157 2.38-1.269s5.118 1.312 9.293 1.002c4.177-.31 4.161-1.382 4.161-1.382l-.111-1.918-24.298.541z"/><path fill="#0E386C" d="M383.781 361.626s-1.817 4.818-.408 7.507c.49.938 8.06.398 11.298.494 3.238.097 12.115 1.155 13.006-.955.302-.716.669-2.144-1.777-2.097-2.445.047-7.211-1.525-9.037-2.042-1.824-.518-5.518-3.684-5.518-3.684l-7.564.777zm-37.405-.493s-.745 3.523-1.287 5.692c-.543 2.168.338 3.117 2.303 3.455 1.966.339 5.828.475 7.996-.406s1.423-2.372 0-4.676c-1.423-2.303-1.965-4.065-1.965-4.065h-7.047z"/><path fill="#FFB5C8" d="M412.941 190.031s2.095-3.777 4.374-3.136l-1.854 4.399c-.001.001-1.329.453-2.52-1.263"/><path fill="#FFB5C8" d="M412.314 199.431l.283-.937s-2.34-2.917-2.439-5.12c-.053-1.165 1.701-1.876 2.668-3.192.969-1.317 3.679-3.847 7.896.014s4.608 5.045 2.541 8.082c-2.068 3.037-4.432 4.815-4.432 4.815l-.951 1.397-6.107-4.159.541-.9z"/><path fill="#D4DAE9" d="M410.105 199.618l.901-1.327s3.128.047 5.688 2.465c2.56 2.417 3.032 3.792 3.032 3.792l-1.231 2.465-8.39-7.395z"/><path fill="#FFB5C8" d="M411.698 191.331c1.107-.498 2.603.135 3.957 1.396 1.355 1.26 2.283 1.17 1.721 2.277-.563 1.109-1.749.591-3.101-.041-1.351-.632-2.234-1.522-2.234-1.522l-.343-2.11z"/><path fill="#FFB5C8" d="M418.093 187.119c1.704.844.729 2.566-.145 3.848-.873 1.282-1.416 2.741-2.346 2.204s-1.569-1.607-.397-3.302 1.076-3.647 2.888-2.75m4.879 3.323c1.705.844.729 2.565-.145 3.848s-1.416 2.741-2.346 2.204-1.568-1.607-.396-3.302c1.172-1.694 1.074-3.647 2.887-2.75"/><path fill="#FFB5C8" d="M420.911 188.206c1.729.811.579 2.788-.432 4.271-1.01 1.482-1.686 3.137-2.623 2.61-.936-.526-1.528-1.667-.176-3.627 1.354-1.96 1.396-4.114 3.231-3.254m-74.108 102.206s1.453 3.184 1.799 4.951c.348 1.767-.892 3.121-.984 4.103-.094.981-.893 3.656-1.622 1.28-.729-2.376.449-3.166-1.388-4.601-1.838-1.436-1.428-7.294-1.428-7.294l3.623 1.561z"/><path fill="none" d="M329.39 308.282l2.198-10.596a4.75 4.75 0 0 1 5.61-3.684l8.198 1.701a4.75 4.75 0 0 1 3.683 5.611l-2.196 10.596a4.753 4.753 0 0 1-5.611 3.684l-8.198-1.701a4.751 4.751 0 0 1-3.684-5.611"/><path fill="#0A1A89" d="M336.657 296.614a2.083 2.083 0 0 0-2.46 1.614L332 308.823a2.083 2.083 0 0 0 1.613 2.459l8.199 1.701a2.082 2.082 0 0 0 2.458-1.614l2.198-10.595a2.082 2.082 0 0 0-1.614-2.459l-8.197-1.701z"/><path fill="#D49100" d="M324.081 325.528l20.812 4.317a7.825 7.825 0 0 0 9.249-6.072l1.778-8.571a7.825 7.825 0 0 0-6.071-9.249l-20.812-4.316a7.822 7.822 0 0 0-9.249 6.07l-1.776 8.571a7.823 7.823 0 0 0 6.069 9.25"/><path fill="#0070F2" d="M324.081 325.528l20.812 4.317a7.825 7.825 0 0 0 9.249-6.072l1.778-8.571a7.825 7.825 0 0 0-6.071-9.249l-20.812-4.316a7.822 7.822 0 0 0-9.249 6.07l-1.776 8.571a7.823 7.823 0 0 0 6.069 9.25"/><path fill="#0A1A89" d="M347.829 308.12l2.387.495-4.437 21.403-2.387-.495zm-20.193-4.178l2.388.495-4.44 21.404-2.387-.495z"/><path fill="#0096FF" d="M323.686 313.03l26.541 5.506a5.975 5.975 0 0 0 7.063-4.636l.062-.291a5.975 5.975 0 0 0-4.636-7.063l-26.541-5.506a5.975 5.975 0 0 0-7.063 4.636l-.061.292a5.972 5.972 0 0 0 4.635 7.062"/><path fill="#7E98D8" d="M340.183 316.194l-.021.1a2.06 2.06 0 0 1-2.435 1.6l-2.315-.481a2.059 2.059 0 0 1-1.598-2.434l.021-.102a2.06 2.06 0 0 1 2.436-1.598l2.315.48a2.061 2.061 0 0 1 1.597 2.435"/><path fill="#0A1A89" d="M340.131 316.444l-.02.089a1.817 1.817 0 0 1-2.146 1.409l-2.793-.58a1.815 1.815 0 0 1-1.408-2.146l.018-.089a1.815 1.815 0 0 1 2.146-1.408l2.793.579a1.816 1.816 0 0 1 1.41 2.146"/><path fill="#FFB5C8" d="M346.018 294.518s-1.674 5.958-3.045 6.522c-1.371.565-5.178.421-6.427-1.038-1.249-1.46-1.565-4.213-1.063-5.423s4.265-6.688 4.265-6.688l5.76 2.413.51 4.214z"/><path fill="#D4DAE9" d="M338.781 286.845l-.353 1.833s1.368 1.617 3.896 2.023c2.529.406 5.293-.323 5.293-.323l.294-2.596-9.13-.937z"/><path fill="#0A1A89" d="M353.771 278.248s-4.666 36-5.487 45.503c-.82 9.504-4.326 29.993-4.441 37.035 0 0 5.023 3.637 12.523 1.056 0 0 4.684-19.795 7.657-35.25 2.867-14.891 5.48-24.381 5.48-24.381l1.66-.093s3.785 15.132 6.278 24.365c2.494 9.233 3.879 32.011 3.879 34.781 0 0 5.909 3.416 12.927-.647 0 0-2.217-24.288-2.771-29.719s-2.59-34.312-3.207-41.652c-.617-7.342-1.975-10.998-1.975-10.998h-32.523z"/><path fill="#0070F2" d="M348.36 236.85s-2.093.661-2.974 6.496c-.881 5.836-6.938 41.481-7.186 42.591-.246 1.109 1.542 2.404 4.438 3.144 2.896.74 5.24.063 6.658-.678l.86-32.158-1.796-19.395zm39.353-10.706s9.729-9.993 15.097-17.342c5.37-7.351 6.346-9.264 6.735-9.364.392-.102 3.318.402 6.149 3.222s3.71 4.43 2.831 6.242c-.878 1.812-15.912 26.014-17.864 28.714-1.952 2.699-11.03 12.868-11.03 12.868l-2.537-21.155.619-3.185z"/><path fill="#C2D2F5" d="M359.789 281.007s9.139 3.018 21.292-.531l-3.104-43.649-3.625-4.175h-5.854l-9.192 3.021-1.733 39.125 2.216 6.209z"/><path fill="#0083FF" d="M364.327 278.33s-.21 8.224-.43 10.646c-.22 2.421-.275 3.962-4.348 3.302-4.072-.661-10.877-2.563-12.418-3.662-1.541-1.101-.44-7.155 0-12.823.438-5.668 1.448-17.751 1.273-22.578-.176-4.826-.478-14.886-.652-16.378-.177-1.49 8.838-5.465 8.838-5.465l4.915 11.434 2.104 27.354.718 8.17zm10.861-1.576c-.167 2.943.754 9.388 1.163 12.148.408 2.761 3.17 3.682 9.716 1.534 6.545-2.148 10.329-2.513 8.897-13.683-1.433-11.17-4.397-27.738-5.42-34.08-1.023-6.341-.922-16.03-2.047-16.861s-9.408 0-9.408 0l-2.02 17.374-.881 33.568z"/><path fill="#0A1A89" d="M366.729 238.887s-3.522 23.306-4.215 32.576c0 0 3.032 5.285 7.018 9.012 0 0 4.419-4.68 6.066-8.578 0 0-1.981-10.922-4.283-33.274l-4.586.264zm-9.87-31.121s-2.229 2.181-1.437 5.153c.793 2.975 4.732 10.458 5.117 10.854.384.396 1.522 1.24 2.067-.941l-1.338-15.314-4.409.248zm18.329-2.578s.966.991 1.057 4.114c.094 3.121 0 4.41 0 4.41l-2.533.496-1.093-8.878 2.569-.142z"/><path fill="#FFB5C8" d="M365.897 204.113c-7.263 1.463-7.408 6.959-6.285 13.843 1.122 6.884 6.734 7.856 8.604 7.856 1.871 0 6.061-2.17 6.659-7.482.6-5.313 1.424-16.312-8.978-14.217"/><path fill="#FFB5C8" d="M359.786 215.682s-.955-1.91-2.156-1.379c-1.203.529-1.557 2.97-.283 4.633 1.271 1.662 2.758 1.414 3.572.848l-1.133-4.102zm14.863-1.969s.533-2.067 1.819-1.801c1.287.267 2.146 2.577 1.25 4.47-.896 1.893-2.4 1.963-3.314 1.579l.245-4.248z"/><path fill="#0A1A89" d="M357.439 210.786s.771 6.616 2.056 6.425c1.286-.19 1.022-6.951 1.022-6.951s-.006-3.116-1.785-3.116c-1.782-.001-1.293 3.642-1.293 3.642"/><path fill="#0A1A89" d="M358.959 210.636s16.521-2.884 18.924-4.573c2.402-1.689 2.966-4.093 2.966-5.183 0-1.089-1.427-1.689-2.628-.638 0 0 .788-1.277.9-2.291s-1.013-1.99-3.004-.788c-1.989 1.201-7.227 2.695-11.02 3.033-3.792.338-9.385 2.402-9.313 6.609.039 2.179 1.064 4.049 3.175 3.831"/><path fill="#FFB5C8" d="M362.572 222.416l1.165 9.458s2.986 1.974 4.854 1.974c1.866 0 4.479-2.826 4.479-2.826s-.472-6.491-.45-8.605h-10.048z"/><path fill="#0A1A89" d="M365.134 235.679s.659 2.253 1.595 3.208c0 0 2.135 1.208 4.586-.265l1.517-3.911-2.607-1.998-1.724-.063-2.734 1.196-.633 1.833z"/><path fill="#E1E8F5" d="M363.079 226.541s.961 3.081 5.418 6.11c0 0-1.85.504-3.026 4.752s-3.806-1.682-4.553-4.584c-.746-2.902-.916-2.776-.453-3.491.464-.715 2.614-2.787 2.614-2.787m9.623-1.415s.212 4.033-4.204 7.524c0 0 3.448 1.43 4.922 3.743 1.473 2.313 2.522 1.094 2.606-1.599.084-2.691.151-5.028-.84-7.695-.293-.799-2.484-1.973-2.484-1.973"/><path fill="#0096FF" d="M360.466 229.328s-1.949.336-5.214 2.043c0 0-1.346 7.603-1.146 14.16l5.697-.596-5.718 4.191s1.026 5.796 4.966 15.456c3.938 9.66 5.274 13.747 5.274 13.747s.68-18.707-.483-30.823c-1.162-12.115-3.376-18.178-3.376-18.178m13.886-3.142s1.04 8.482 1.247 22.202-.41 28.366-.41 28.366 5.858-18.77 6.826-25.885c.675-4.963.599-6.352.599-6.352l-4.966-1.866 4.966-1.677s-.202-1.38-.758-3.843c-.556-2.461-2.755-11.632-2.755-11.632s-2.608-.178-4.749.687"/><path fill="#FFB5C8" d="M424.813 192.635c1.498.742.642 2.257-.127 3.383-.767 1.127-1.243 2.408-2.063 1.937-.814-.472-1.378-1.414-.349-2.901 1.031-1.491.947-3.207 2.539-2.419"/><path fill="#4ED1F4" d="M585.981 476.011l-19.888-4.882-19.89 4.882s-12.172 18.702-12.172 41.24 32.062 93.291 32.062 93.291 32.059-70.753 32.059-93.291-12.171-41.24-12.171-41.24"/><path fill="#29ABE2" d="M577.678 473.973l-11.584-2.845-11.585 2.845s-7.089 10.893-7.089 24.021 18.674 35.195 18.674 35.195 18.673-22.067 18.673-35.195c0-13.129-7.089-24.021-7.089-24.021"/><path fill="#E1E8F5" d="M638.73 260.429c0 24.023-1.814 46.713-4.765 67.743-.18 1.265-.356 2.529-.543 3.779a459.905 459.905 0 0 1-2.094 12.952c-1.043 6-2.18 11.844-3.387 17.522a526.3 526.3 0 0 1-.992 4.587c-.172.758-.336 1.515-.508 2.265s-.343 1.5-.515 2.243a514.795 514.795 0 0 1-5.485 21.596c-.364 1.3-.729 2.586-1.094 3.857h-.008a489.036 489.036 0 0 1-9.758 30.317c-12.202 34.076-23.603 53.736-23.603 53.736s-1.353 1.5-10.475 3.921c-4.008 1.064-6.751 1.665-8.415 1.986h-.015a5.168 5.168 0 0 1-.929.1c-.328 0-.664-.027-1-.093-.021 0-.035-.007-.059-.007-1.664-.321-4.406-.922-8.414-1.986-9.115-2.421-10.474-3.921-10.474-3.921s-11.415-19.688-23.631-53.8c-6.408-17.902-13.038-39.783-18.346-64.879-3.879-18.347-7.059-38.398-8.931-59.872a482.57 482.57 0 0 1-1.843-42.048c0-15.745.907-30.719 2.528-44.885 9.787-85.875 45.534-142.41 62.309-164.806 5.357-17.431 7.059-26.203 7.579-29.582.05-.293.464-.3.521-.007.3 1.536.851 4.207 1.835 8.314 1.18 4.895 2.973 11.823 5.681 21.295v.009c19.576 26.113 64.831 98.536 64.831 209.664"/><path fill="#C2D2F5" d="M522.576 427.23l-32.954 32.118-18.487 18.017v-81.803l10.059-10.094 23.039-23.117c5.306 25.097 11.936 46.978 18.343 64.879"/><path fill="#E1E8F5" d="M660.966 395.563v81.803l-51.378-50.069c6.414-17.896 13.045-39.771 18.358-64.865l33.02 33.131z"/><path fill="#29ABE2" d="M640.816 435.924c0 44.334 18.037 75.431 18.037 75.431s.465.514 3.586 1.343c1.365.364 2.308.571 2.873.678h.007c.214.045.442.045.657.01.007-.01.015-.01.021-.01.571-.105 1.508-.313 2.879-.678 3.114-.829 3.579-1.343 3.579-1.343s18.037-31.097 18.037-75.431c0-29.575-9.379-51.136-16.687-63.443v-.008l-2.193-3.107c-2.9-4.122-9.017-4.122-11.916 0l-2.193 3.107-.007.008c-7.314 12.313-16.68 33.873-16.68 63.443m-149.534.001c0 44.337-18.032 75.431-18.032 75.431s-.47.512-3.594 1.345c-1.361.364-2.3.564-2.863.679h-.009a1.61 1.61 0 0 1-.339.032c-.104 0-.217-.008-.32-.024-.01-.008-.018-.008-.018-.008a44.158 44.158 0 0 1-2.881-.679c-3.116-.833-3.585-1.345-3.585-1.345s-18.033-31.094-18.033-75.431c0-29.575 9.381-51.133 16.688-63.446v-.009l2.195-3.107a7.23 7.23 0 0 1 5.952-3.089 7.248 7.248 0 0 1 5.962 3.089l2.188 3.107.009.009c7.318 12.313 16.68 33.877 16.68 63.446"/><path fill="#C2D2F5" d="M638.73 260.429c0 24.023-1.814 46.713-4.765 67.743-.18 1.265-.356 2.529-.543 3.779a459.905 459.905 0 0 1-2.094 12.952c-1.043 6-2.18 11.844-3.387 17.522a526.3 526.3 0 0 1-.992 4.587c-.172.758-.336 1.515-.508 2.265s-.343 1.5-.515 2.243a514.795 514.795 0 0 1-5.485 21.596c-.364 1.3-.729 2.586-1.094 3.857h-.008a489.036 489.036 0 0 1-9.758 30.317c-12.202 34.076-23.603 53.736-23.603 53.736s-1.353 1.5-10.475 3.921c-4.008 1.064-6.751 1.665-8.415 1.986h-.015a5.168 5.168 0 0 1-.929.1l-.058-.1V29.708l2.136-.243c1.18 4.895 2.973 11.823 5.681 21.296v.008c19.572 26.109 64.827 98.532 64.827 209.66"/><path fill="#4ED1F4" d="M491.282 435.925c0 44.337-18.032 75.431-18.032 75.431s-.47.512-3.594 1.345c-1.361.364-2.3.564-2.863.679h-.009a1.61 1.61 0 0 1-.339.032v-147.14a7.247 7.247 0 0 1 5.962 3.089l2.188 3.106.009.01c7.316 12.315 16.678 33.879 16.678 63.448m199.209 0c0 44.337-18.032 75.431-18.032 75.431s-.47.512-3.595 1.345a47.435 47.435 0 0 1-2.862.679h-.01a1.61 1.61 0 0 1-.339.032v-147.14a7.249 7.249 0 0 1 5.963 3.089l2.188 3.106.009.01c7.315 12.315 16.678 33.879 16.678 63.448"/><path fill="#A4BEF5" d="M594.426 189.712c0 17.196-13.94 31.138-31.138 31.138-17.196 0-31.137-13.941-31.137-31.138 0-17.195 13.94-31.137 31.137-31.137 17.198 0 31.138 13.942 31.138 31.137"/><path fill="#0A009C" d="M584.644 189.714c0 8.184-4.599 15.282-11.36 18.866a21.21 21.21 0 0 1-9.997 2.482c-11.794 0-21.348-9.555-21.348-21.349 0-2.682.494-5.241 1.397-7.602 3.055-8.036 10.829-13.755 19.949-13.755 11.794.001 21.359 9.564 21.359 21.358"/><path fill="#0C00BA" d="M574.672 200.996c0 2.673-.485 5.233-1.389 7.585a21.218 21.218 0 0 1-9.998 2.482c-11.793 0-21.348-9.556-21.348-21.35 0-2.681.493-5.24 1.396-7.602a21.223 21.223 0 0 1 9.979-2.473c11.797.001 21.36 9.564 21.36 21.358"/><linearGradient id="c" gradientUnits="userSpaceOnUse" x1="-1640.876" y1="-673.143" x2="-1639.875" y2="-673.143" gradientTransform="translate(11450.335 4655.344) scale(6.632)"><stop offset="0" stop-color="#e9eaff"/><stop offset="1" stop-color="#e9ebff"/></linearGradient><path fill="url(#c)" d="M568.039 187.742h6.633v6.632h-6.633z"/><linearGradient id="d" gradientUnits="userSpaceOnUse" x1="-1675.257" y1="-669.512" x2="-1674.257" y2="-669.512" gradientTransform="translate(6632.298 2608.166) scale(3.6221)"><stop offset="0" stop-color="#e9eaff"/><stop offset="1" stop-color="#e9ebff"/></linearGradient><path fill="url(#d)" d="M564.418 181.314h3.621v3.623h-3.621z"/><path fill="#29ABE2" d="M566.229 121.387c6.024 0 35.888.84 40.901-6.392 4.066-5.867-6.639-21.065-10.501-28.258-12.608-23.475-25.045-39.007-30.237-65.588 3.754 19.191-19.959 45.96-28.698 61.738-4.06 7.326-16.727 26.172-12.614 32.107 4.897 7.072 35.029 6.393 41.149 6.393"/><path fill="#4ED1F4" d="M566.094 29.708v91.679c4.93.016 39.808.591 43.19-7.411.837-1.978-4.04-9.617-5.054-12.144-3.411-8.506-8.347-16.763-12.942-24.646-4.749-8.15-22.987-45.973-25.194-47.478"/><linearGradient id="e" gradientUnits="userSpaceOnUse" x1="-1618.436" y1="-675.503" x2="-1617.436" y2="-675.503" gradientTransform="translate(24011.193 9811.036) scale(14.4908)"><stop offset="0" stop-color="#00217f"/><stop offset="1" stop-color="#00167f"/></linearGradient><path fill="url(#e)" d="M558.848 15.216h14.491v14.49h-14.491z"/></svg>