<svg xmlns="http://www.w3.org/2000/svg" xmlns:xlink="http://www.w3.org/1999/xlink" width="303.333" height="392.667"><defs><path id="a" d="M1.517 1.213h300.299v300.308H1.517z"/></defs><clipPath id="b"><use xlink:href="#a" overflow="visible"/></clipPath><circle clip-path="url(#b)" fill="none" stroke="#0FF" stroke-width="4" stroke-miterlimit="10" cx="151.667" cy="151.368" r="148.019"/><path fill="#F4F4F4" d="M264.365 151.368c0 62.241-50.457 112.698-112.699 112.698-62.24 0-112.696-50.457-112.696-112.698 0-62.241 50.456-112.698 112.696-112.698 62.242 0 112.699 50.457 112.699 112.698"/><g opacity=".5"><defs><path id="c" d="M132.174 313.263h38.986v38.99h-38.986z"/></defs><clipPath id="d"><use xlink:href="#c" overflow="visible"/></clipPath><circle clip-path="url(#d)" fill="none" stroke="#0FF" stroke-width="4" stroke-miterlimit="10" cx="151.667" cy="332.757" r="17.362"/></g><g opacity=".5"><defs><path id="e" d="M137.939 363.996h27.456v27.457h-27.456z"/></defs><clipPath id="f"><use xlink:href="#e" overflow="visible"/></clipPath><circle clip-path="url(#f)" fill="none" stroke="#0FF" stroke-width="4" stroke-miterlimit="10" cx="151.667" cy="377.722" r="11.597"/></g><path fill="#29ABE2" d="M154.07 92.509c-11.276-.71-22.011 3.136-30.216 10.84-8.094 7.598-12.735 18.318-12.735 29.41a40.325 40.325 0 0 0 5.159 19.741c4.284 7.61 7.182 13.602 9.392 19.43l6.833 18.025a3.634 3.634 0 0 0 3.38 2.331h31.138a3.63 3.63 0 0 0 3.38-2.331l7.118-18.774c2.101-5.542 4.958-11.411 8.987-18.47a40.285 40.285 0 0 0 5.27-20.866c-.461-20.75-17.022-38.026-37.706-39.336m30.04 58.834c-4.102 7.186-7.015 13.178-9.168 18.859l-7.12 18.775a.861.861 0 0 1-.802.551h-31.138a.86.86 0 0 1-.8-.553l-6.835-18.025c-2.26-5.961-5.211-12.068-9.565-19.803a37.557 37.557 0 0 1-4.804-18.389c0-10.486 4.213-20.216 11.863-27.398 7.044-6.613 16.085-10.177 25.685-10.177.818 0 1.645.025 2.471.079 19.264 1.218 34.692 17.313 35.12 36.643a37.491 37.491 0 0 1-4.907 19.438m-17.145 45.305H135.94a1.38 1.38 0 0 0 0 2.758h31.025c.762 0 1.378-.617 1.378-1.379s-.616-1.379-1.378-1.379m-3.104 7.12h-24.819a1.38 1.38 0 1 0 0 2.759h24.819a1.379 1.379 0 1 0 0-2.759m-1.838 7.12H140.88a1.378 1.378 0 1 0 0 2.758h21.143c.763 0 1.379-.617 1.379-1.379 0-.764-.616-1.379-1.379-1.379m-6.548 7.119h-8.045c-.761 0-1.377.616-1.377 1.377 0 .765.617 1.381 1.377 1.381h8.045a1.378 1.378 0 1 0 0-2.758"/><path fill="#29ABE2" d="M165.205 143.474a5.478 5.478 0 0 0-3.267 1.088c-1.241.925-2.083 2.331-2.206 3.944-.027.151-.027.303-.027.456v2.729h-3.518c.471-.813.758-1.737.758-2.729 0-3.036-2.467-5.488-5.5-5.488a5.492 5.492 0 0 0-5.488 5.488c0 .991.289 1.916.757 2.729h-3.529v-2.729c0-.125 0-.235-.028-.345-.083-1.669-.938-3.119-2.193-4.056a5.506 5.506 0 0 0-3.267-1.088 5.493 5.493 0 0 0-5.489 5.488c0 3.02 2.468 5.488 5.489 5.488h2.729v36.457c0 .757.621 1.378 1.379 1.378.771 0 1.379-.621 1.379-1.378v-36.457h16.519v36.457c0 .757.62 1.378 1.379 1.378.771 0 1.379-.621 1.379-1.378v-36.457h2.742c3.022 0 5.489-2.469 5.489-5.488a5.488 5.488 0 0 0-5.487-5.487m-24.777 8.217h-2.729a2.736 2.736 0 0 1-2.731-2.729 2.738 2.738 0 0 1 2.731-2.732 2.738 2.738 0 0 1 2.729 2.732v2.729zm11.017 0a2.737 2.737 0 0 1-2.73-2.729 2.738 2.738 0 0 1 2.73-2.732 2.74 2.74 0 0 1 2.743 2.732 2.737 2.737 0 0 1-2.743 2.729m13.76 0h-2.742v-2.729a2.74 2.74 0 0 1 2.742-2.732 2.738 2.738 0 0 1 2.73 2.732 2.735 2.735 0 0 1-2.73 2.729"/><path fill="#29ABE2" d="M159.732 148.506c-.027.151-.027.303-.027.456v-.512l.027.056zm-16.546.056v.4c0-.125 0-.235-.028-.346l.028-.054z"/></svg>